<?xml version="1.0" encoding="UTF-8" standalone="no"?> <svg xmlns="http://www.w3.org/2000/svg" width="78.033" height="97.316" viewBox="0 0 78.033 97.316">
  <g id="Group_953" data-name="Group 953" transform="translate(-650.661 -1743.841)">
    <g id="Group_952" data-name="Group 952">
      <g id="Group_951" data-name="Group 951">
        <g id="Group_950" data-name="Group 950">
          <g id="Group_949" data-name="Group 949">
            <path id="Path_153" data-name="Path 153" d="M687.052,1764.83c.59,1.622,3,5.435,5.551,17.9.315,1.539.881,2.977,1.117,4.419a31.227,31.227,0,0,1,.4,3.91c0,.214.012.418.018.628.025,1.173,0,2.287-.066,3.285-.078,1.516-.447,4.167-.7,6.953-1.182-.874-2.43-1.778-3.4-2.6-.666-.99-1.3-2.011-1.977-3.027q-1.2-2.031-2.406-4.082c-.93-1.325-1.81-2.687-2.777-3.956-1.037-1.2-2.07-2.392-3.1-3.57a69.314,69.314,0,0,1-5.7-6.869,103.349,103.349,0,0,1-6.861-13.234c-.67-.945,1.668,5.432,2.051,6.668.9,1.921,1.719,4.043,2.926,6.162l.943,1.6c.342.522.717,1.027,1.082,1.549s.738,1.029,1.131,1.528a41.659,41.659,0,0,0-3.426-3.194,35.443,35.443,0,0,0-3.271-2.068c-1.09-.654-2.162-1.31-3.223-1.905-2.115-1.214-4.189-2.37-6.043-3.649a41.583,41.583,0,0,1-5.072-3.846,18.141,18.141,0,0,1-3.449-4.214c-.219-.24-.164-.013.063.493a10.522,10.522,0,0,0,1.18,2.094,29.93,29.93,0,0,0,3.217,3.767,66.254,66.254,0,0,0,9.217,6.589c1.746,1.075,3.383,2.193,5.145,3.313a13.58,13.58,0,0,1,2.313,1.927c.736.667,1.445,1.538,2.174,2.305.8.775,1.652,1.561,2.477,2.32.787.707,1.688,1.373,2.393,2.118,1.334,1.378,2.75,3.329,4.063,4.9a9.069,9.069,0,0,1,1.471,2.508,23.263,23.263,0,0,0,1.3,3l.789,1.483c.33.441.68.937.99,1.3a6.888,6.888,0,0,1,1.363,2.188c-.008-.077-.016-.148-.025-.222a2.8,2.8,0,0,0,.486,1.036l.334.452.625.859c.223.307.824,2.718.389.757.541,2.9,1.057,6.756,1.5,9.314a39.857,39.857,0,0,1,.432,6.516,30.292,30.292,0,0,1-.859,6.741,21.832,21.832,0,0,1-3.572,7.653,25.126,25.126,0,0,1-4.316,4.522h19.69c-.219-.3-.453-.618-.717-.97a12.834,12.834,0,0,1-1.527-2.768c-.182-.576-.371-1.177-.568-1.793a18.94,18.94,0,0,0-.815-2.231,12.362,12.362,0,0,1-.666-1.827,3.776,3.776,0,0,1-.021-.878l.014-1.01c.018-.8.031-1.591.045-2.371.027-.831-.053-1.461-.074-2.181-.141-2.748-.25-5.29-.268-7.026a28.2,28.2,0,0,1,.113-3.824l.106-.011s-.029-.143-.066-.347a26.261,26.261,0,0,1,.426-2.74,33.3,33.3,0,0,1,1.1-3.815l.332-.955c.16-1.763,2.42-7.669,2.42-7.669.7-1.41,11.088-5.227,11.861-6.672.838-1.408-10.816,3.848-9.92,2.446,3.639-5.259,5.164-6.79,3.023-3.963,1.039-1.287,2.232-2.431,3.33-3.643,2.318-2.313,4.865-4.319,7.145-6.444,1.17-1.015,2.188-2.167,3.211-3.216.924-1.144,1.861-2.212,2.617-3.342a69.939,69.939,0,0,0,3.924-6.2c.215-.585-.707.631-1.783,2.112a40.434,40.434,0,0,1-2.977,3.573,41.453,41.453,0,0,1-4.863,5.1c-1.883,1.646-3.979,3.269-6.127,5.045a59.311,59.311,0,0,0-5.121,4.906c.34-.726.678-1.452.984-2.183l1.168-2.733a19.544,19.544,0,0,0,.961-2.9c.469-1.953.769-3.778,1.191-5.55.791-3.541,1.539-6.716,2.2-9.15-.037-.743-1.6,3.256-2.012,3.972-.859,2.49-1.768,5.356-2.6,8.515-.193.789-.441,1.514-.664,2.279-.3.722-.5,1.392-.912,2.164-.736,1.5-1.475,3.007-2.213,4.507-1.477,2.984-.359,1.152-2.4,3.585a41.427,41.427,0,0,0-2.619,3.62c-.711,1.247-1.359,2.409-1.852,3.41-.295.584-.707,1.354-1.162,2.225-.178-1.488-.334-2.812-.438-3.708-.119-.909-.258-1.979-.385-3.132-.021-1.092-.109-2.321-.258-3.6-.012-.369-.035-.726-.037-1.1s-.012-.767-.019-1.159c.035-.38.068-.767.1-1.155a12.745,12.745,0,0,1,.32-2.33c.367-1.521,1.672-2.916,1.9-4.676.863-6.534,6.459-20.544,7.078-22.229.615-1.651,1.219-3.27,1.793-4.809a28.883,28.883,0,0,0,1.926-8.371c-.125-.668-1.137,3.086-1.525,3.7-.185.541-.383,1.1-.582,1.683q-.381.823-.777,1.7c-.57,1.231-1.174,2.524-1.793,3.854l-.9,2.034c-.32.632-.639,1.269-1.018,1.917a160.117,160.117,0,0,0-7.041,21.323,25.046,25.046,0,0,1-1.08,2.485,15.8,15.8,0,0,1-.76-1.993c-3.158-14.77-8.9-24.992-9.531-26.8C684.821,1753.82,683.267,1754.42,687.052,1764.83Z"/>
          </g>
        </g>
      </g>
    </g>
  </g>
</svg>
