<?xml version="1.0" encoding="UTF-8"?>
<!DOCTYPE svg PUBLIC "-//W3C//DTD SVG 1.1//EN" "http://www.w3.org/Graphics/SVG/1.1/DTD/svg11.dtd">
<svg xmlns="http://www.w3.org/2000/svg" version="1.1" width="500px" height="500px" style="shape-rendering:geometricPrecision; text-rendering:geometricPrecision; image-rendering:optimizeQuality; fill-rule:evenodd; clip-rule:evenodd" xmlns:xlink="http://www.w3.org/1999/xlink">
<g><path style="opacity:1" fill="#fefefe" d="M -0.5,-0.5 C 166.167,-0.5 332.833,-0.5 499.5,-0.5C 499.5,166.167 499.5,332.833 499.5,499.5C 332.833,499.5 166.167,499.5 -0.5,499.5C -0.5,332.833 -0.5,166.167 -0.5,-0.5 Z"/></g>
<g><path style="opacity:1" fill="#77ae70" d="M 106.5,31.5 C 104.03,29.5552 101.363,27.7218 98.5,26C 94.8916,24.6772 91.2249,24.0105 87.5,24C 89.0589,24.9799 90.7256,25.8133 92.5,26.5C 94.297,27.6951 95.297,29.3618 95.5,31.5C 92.628,28.2272 88.9613,26.2272 84.5,25.5C 84.5,37.1667 84.5,48.8333 84.5,60.5C 83.5052,49.3456 83.1719,38.0123 83.5,26.5C 83.5,25.5 83.5,24.5 83.5,23.5C 79.0293,22.9106 75.0293,23.5772 71.5,25.5C 69.4109,25.1433 67.4109,24.4767 65.5,23.5C 75.1495,22.3345 84.8161,22.1679 94.5,23C 97.8742,23.521 100.874,24.8543 103.5,27C 105.141,28.129 106.141,29.629 106.5,31.5 Z"/></g>
<g><path style="opacity:1" fill="#78b470" d="M 207.5,30.5 C 206.448,30.6495 205.448,30.4828 204.5,30C 202.155,27.3231 199.488,24.9897 196.5,23C 189.345,22.0509 182.345,22.5509 175.5,24.5C 176.347,23.0337 177.68,22.2004 179.5,22C 185.5,21.3333 191.5,21.3333 197.5,22C 201.613,23.9481 204.946,26.7814 207.5,30.5 Z"/></g>
<g><path style="opacity:1" fill="#6fab67" d="M 254.5,26.5 C 254.167,26.5 253.833,26.5 253.5,26.5C 253.5,25.5 253.5,24.5 253.5,23.5C 252.5,23.5 251.5,23.5 250.5,23.5C 250.824,30.3543 250.491,37.021 249.5,43.5C 249.666,37.8236 249.499,32.1569 249,26.5C 247.22,25.4063 245.386,24.4063 243.5,23.5C 248.833,22.1667 254.167,22.1667 259.5,23.5C 257.64,24.3249 255.974,25.3249 254.5,26.5 Z"/></g>
<g><path style="opacity:1" fill="#71ac6b" d="M 385.5,22.5 C 392.863,22.1694 400.197,22.5027 407.5,23.5C 405.681,24.3199 404.014,25.3199 402.5,26.5C 402.5,25.5 402.5,24.5 402.5,23.5C 398.029,22.9106 394.029,23.5772 390.5,25.5C 388.304,25.4348 386.304,24.7681 384.5,23.5C 384.624,22.8933 384.957,22.56 385.5,22.5 Z"/></g>
<g><path style="opacity:1" fill="#6eaf66" d="M 237.5,31.5 C 234.476,29.997 231.81,27.8303 229.5,25C 226.964,24.6608 224.464,24.1608 222,23.5C 221.5,23.8333 221,24.1667 220.5,24.5C 221.611,25.6113 222.278,26.9446 222.5,28.5C 221.879,38.9816 221.212,49.3149 220.5,59.5C 220.666,49.1613 220.5,38.828 220,28.5C 218.316,26.6487 216.483,24.982 214.5,23.5C 220.137,22.3368 225.804,22.1701 231.5,23C 234.381,25.2787 236.381,28.112 237.5,31.5 Z"/></g>
<g><path style="opacity:1" fill="#7dad77" d="M 305.5,22.5 C 306.568,21.5655 307.901,21.2322 309.5,21.5C 309.5,26.5 309.5,31.5 309.5,36.5C 308.167,36.5 306.833,36.5 305.5,36.5C 305.5,35.5 305.5,34.5 305.5,33.5C 306.151,34.0906 306.818,34.7573 307.5,35.5C 308.492,31.2172 308.826,26.8839 308.5,22.5C 307.5,22.5 306.5,22.5 305.5,22.5 Z"/></g>
<g><path style="opacity:1" fill="#69b25f" d="M 157.5,31.5 C 153.425,27.9502 148.758,25.1169 143.5,23C 142.365,22.2506 141.365,22.4173 140.5,23.5C 141.993,24.1411 142.993,25.1411 143.5,26.5C 137.233,23.3118 132.733,24.9785 130,31.5C 129.187,33.4357 128.687,35.4357 128.5,37.5C 128.167,37.5 127.833,37.5 127.5,37.5C 127.063,34.1934 127.73,31.1934 129.5,28.5C 129.167,28.1667 128.833,27.8333 128.5,27.5C 127.167,28.8333 125.833,28.8333 124.5,27.5C 122.736,29.2776 120.736,30.6109 118.5,31.5C 120.664,26.8508 124.331,23.6841 129.5,22C 136.715,20.887 143.715,21.5537 150.5,24C 153.717,25.7155 156.05,28.2155 157.5,31.5 Z"/></g>
<g><path style="opacity:1" fill="#fbfdfa" d="M 143.5,26.5 C 143.5,26.8333 143.5,27.1667 143.5,27.5C 144.907,29.3083 146.074,31.3083 147,33.5C 147.698,41.5279 147.532,49.5279 146.5,57.5C 144.685,59.7957 142.351,61.6291 139.5,63C 137.16,63.7484 135.16,63.2484 133.5,61.5C 131.156,58.9958 129.656,55.9958 129,52.5C 128.501,47.5111 128.334,42.5111 128.5,37.5C 128.687,35.4357 129.187,33.4357 130,31.5C 132.733,24.9785 137.233,23.3118 143.5,26.5 Z"/></g>
<g><path style="opacity:1" fill="#f2fdf0" d="M 359.5,26.5 C 360.79,25.0652 362.456,24.0652 364.5,23.5C 356.5,22.1667 348.5,22.1667 340.5,23.5C 342.184,24.1497 343.517,25.1497 344.5,26.5C 341.143,25.3733 337.809,25.3733 334.5,26.5C 335.483,25.1497 336.816,24.1497 338.5,23.5C 330.5,22.1667 322.5,22.1667 314.5,23.5C 316.022,24.562 317.688,25.2287 319.5,25.5C 319.5,25.8333 319.5,26.1667 319.5,26.5C 316.261,26.5871 313.261,25.9205 310.5,24.5C 310.666,28.8461 310.499,33.1794 310,37.5C 308.842,37.9981 308.009,38.8315 307.5,40C 309.523,42.1749 310.857,44.6749 311.5,47.5C 311.167,47.5 310.833,47.5 310.5,47.5C 309.167,44.1667 306.833,41.8333 303.5,40.5C 298.762,38.6243 294.429,35.9576 290.5,32.5C 288.544,28.4958 289.544,25.8292 293.5,24.5C 293.833,24.5 294.167,24.5 294.5,24.5C 299.663,25.662 303.329,28.662 305.5,33.5C 305.5,34.5 305.5,35.5 305.5,36.5C 306.833,36.5 308.167,36.5 309.5,36.5C 309.5,31.5 309.5,26.5 309.5,21.5C 315.278,20.2422 321.278,20.2422 327.5,21.5C 330.613,21.4377 333.446,20.7711 336,19.5C 336.5,20 337,20.5 337.5,21C 347.167,21.3333 356.833,21.6667 366.5,22C 367.833,23 367.833,24 366.5,25C 364.323,26.2022 361.989,26.7022 359.5,26.5 Z"/></g>
<g><path style="opacity:1" fill="#76ab72" d="M 334.5,26.5 C 334.167,26.5 333.833,26.5 333.5,26.5C 333.5,25.5 333.5,24.5 333.5,23.5C 328.381,22.8969 323.715,23.5636 319.5,25.5C 317.688,25.2287 316.022,24.562 314.5,23.5C 322.5,22.1667 330.5,22.1667 338.5,23.5C 336.816,24.1497 335.483,25.1497 334.5,26.5 Z"/></g>
<g><path style="opacity:1" fill="#60b357" d="M 289.5,22.5 C 294.932,21.5861 300.265,21.5861 305.5,22.5C 306.5,22.5 307.5,22.5 308.5,22.5C 308.826,26.8839 308.492,31.2172 307.5,35.5C 306.818,34.7573 306.151,34.0906 305.5,33.5C 303.329,28.662 299.663,25.662 294.5,24.5C 293.448,22.744 291.781,22.0773 289.5,22.5 Z"/></g>
<g><path style="opacity:1" fill="#fbfdfa" d="M 95.5,31.5 C 95.366,33.2915 95.6993,34.9582 96.5,36.5C 96.7461,42.5594 96.4128,48.5594 95.5,54.5C 95.5,54.8333 95.5,55.1667 95.5,55.5C 93.7132,59.2757 90.7132,61.609 86.5,62.5C 85.2867,62.2528 84.62,61.5862 84.5,60.5C 84.5,48.8333 84.5,37.1667 84.5,25.5C 88.9613,26.2272 92.628,28.2272 95.5,31.5 Z"/></g>
<g><path style="opacity:1" fill="#8fbd8a" d="M 285.5,23.5 C 285.025,25.7837 284.025,27.7837 282.5,29.5C 281.532,31.6074 281.198,33.9407 281.5,36.5C 279.383,31.1694 280.716,26.836 285.5,23.5 Z"/></g>
<g><path style="opacity:1" fill="#64b45a" d="M 415.5,43.5 C 412.221,42.9694 410.887,40.9694 411.5,37.5C 410.325,37.281 409.325,37.6143 408.5,38.5C 407.559,40.7721 406.226,42.7721 404.5,44.5C 404.808,45.3081 405.308,45.9747 406,46.5C 408.197,41.1406 409.697,41.4739 410.5,47.5C 407.002,47.5653 406.502,48.8986 409,51.5C 410.085,52.2931 411.252,52.9598 412.5,53.5C 413.184,56.6163 414.184,59.6163 415.5,62.5C 415.043,63.2975 414.376,63.6309 413.5,63.5C 413.313,61.4357 412.813,59.4357 412,57.5C 409.032,53.8263 405.866,50.4929 402.5,47.5C 401.517,51.2984 401.183,55.2984 401.5,59.5C 400.78,55.3002 400.114,50.9669 399.5,46.5C 400.415,45.6721 401.081,44.6721 401.5,43.5C 400.924,40.3651 400.591,37.1985 400.5,34C 400.525,31.0706 401.191,28.5706 402.5,26.5C 402.5,30.8333 402.5,35.1667 402.5,39.5C 404.179,39.7148 405.179,39.0481 405.5,37.5C 410.049,35.1312 414.215,32.1312 418,28.5C 418.779,26.0937 417.946,24.427 415.5,23.5C 420.792,22.5052 426.125,22.1718 431.5,22.5C 431.5,23.5 431.5,24.5 431.5,25.5C 430.127,25.3433 428.793,25.51 427.5,26C 424.077,29.7769 420.244,32.9435 416,35.5C 412.862,38.0644 412.695,40.731 415.5,43.5 Z"/></g>
<g><path style="opacity:1" fill="#effdec" d="M 405.5,37.5 C 405.179,39.0481 404.179,39.7148 402.5,39.5C 402.5,35.1667 402.5,30.8333 402.5,26.5C 404.014,25.3199 405.681,24.3199 407.5,23.5C 400.197,22.5027 392.863,22.1694 385.5,22.5C 393.097,20.5332 401.097,19.8665 409.5,20.5C 409.579,21.9305 409.246,23.2638 408.5,24.5C 406.404,25.5919 405.071,27.2586 404.5,29.5C 404.818,30.6473 405.484,31.4806 406.5,32C 405.01,32.7455 404.01,33.9121 403.5,35.5C 403.747,36.7133 404.414,37.38 405.5,37.5 Z"/></g>
<g><path style="opacity:1" fill="#56b74b" d="M 83.5,26.5 C 82.3405,37.9927 82.1739,49.6593 83,61.5C 83.7724,62.8491 84.9391,63.6824 86.5,64C 80.0802,64.8438 75.7469,64.6771 73.5,63.5C 73.6665,51.4954 73.4999,39.4954 73,27.5C 72.6174,26.944 72.1174,26.6107 71.5,26.5C 71.5,26.1667 71.5,25.8333 71.5,25.5C 75.0293,23.5772 79.0293,22.9106 83.5,23.5C 83.5,24.5 83.5,25.5 83.5,26.5 Z"/></g>
<g><path style="opacity:1" fill="#58b64c" d="M 106.5,31.5 C 108.267,33.7916 109.267,36.4582 109.5,39.5C 110.399,47.396 108.066,54.0627 102.5,59.5C 101.311,60.4287 99.9778,60.762 98.5,60.5C 98.5,61.5 98.5,62.5 98.5,63.5C 97.5,63.5 96.5,63.5 95.5,63.5C 94.6236,63.6309 93.9569,63.2975 93.5,62.5C 95.1713,60.4902 95.838,58.1569 95.5,55.5C 95.5,55.1667 95.5,54.8333 95.5,54.5C 97.8896,54.3152 98.8896,52.9818 98.5,50.5C 98.0071,45.663 97.3404,40.9964 96.5,36.5C 95.6993,34.9582 95.366,33.2915 95.5,31.5C 95.297,29.3618 94.297,27.6951 92.5,26.5C 90.7256,25.8133 89.0589,24.9799 87.5,24C 91.2249,24.0105 94.8916,24.6772 98.5,26C 101.363,27.7218 104.03,29.5552 106.5,31.5 Z"/></g>
<g><path style="opacity:1" fill="#57b74c" d="M 127.5,37.5 C 127.334,43.5092 127.501,49.5092 128,55.5C 128.21,57.0581 128.71,58.3915 129.5,59.5C 129.36,61.1238 130.027,62.2904 131.5,63C 130.207,63.49 128.873,63.6567 127.5,63.5C 126.5,63.5 125.5,63.5 124.5,63.5C 122.437,60.3816 120.604,57.0482 119,53.5C 118.329,52.7476 117.496,52.4142 116.5,52.5C 116.5,52.1667 116.5,51.8333 116.5,51.5C 116.612,44.8198 116.946,38.1531 117.5,31.5C 117.833,31.5 118.167,31.5 118.5,31.5C 120.736,30.6109 122.736,29.2776 124.5,27.5C 125.833,28.8333 127.167,28.8333 128.5,27.5C 128.833,27.8333 129.167,28.1667 129.5,28.5C 127.73,31.1934 127.063,34.1934 127.5,37.5 Z"/></g>
<g><path style="opacity:1" fill="#9cbc9a" d="M 253.5,26.5 C 253.833,26.5 254.167,26.5 254.5,26.5C 254.5,39.8333 254.5,53.1667 254.5,66.5C 252.585,66.7845 250.919,66.4511 249.5,65.5C 250.833,65.5 252.167,65.5 253.5,65.5C 253.5,52.5 253.5,39.5 253.5,26.5 Z"/></g>
<g><path style="opacity:1" fill="#74aa6e" d="M 320.5,26.5 C 321.166,32.4907 321.5,38.6574 321.5,45C 321.496,51.538 320.83,57.7047 319.5,63.5C 320.44,51.2039 320.773,38.8706 320.5,26.5 Z"/></g>
<g><path style="opacity:1" fill="#57b64c" d="M 333.5,26.5 C 333.167,26.5 332.833,26.5 332.5,26.5C 331.834,32.4907 331.5,38.6574 331.5,45C 331.504,51.538 332.17,57.7047 333.5,63.5C 334.167,63.5 334.833,63.5 335.5,63.5C 329.5,64.8333 323.5,64.8333 317.5,63.5C 318.167,63.5 318.833,63.5 319.5,63.5C 320.83,57.7047 321.496,51.538 321.5,45C 321.5,38.6574 321.166,32.4907 320.5,26.5C 320.167,26.5 319.833,26.5 319.5,26.5C 319.5,26.1667 319.5,25.8333 319.5,25.5C 323.715,23.5636 328.381,22.8969 333.5,23.5C 333.5,24.5 333.5,25.5 333.5,26.5 Z"/></g>
<g><path style="opacity:1" fill="#6eaa68" d="M 332.5,26.5 C 332.187,38.9133 332.521,51.2467 333.5,63.5C 332.17,57.7047 331.504,51.538 331.5,45C 331.5,38.6574 331.834,32.4907 332.5,26.5 Z"/></g>
<g><path style="opacity:1" fill="#56b74a" d="M 349.5,23.5 C 350.148,25.0858 350.648,26.7525 351,28.5C 351.49,27.2068 351.657,25.8734 351.5,24.5C 353.167,24.5 354.833,24.5 356.5,24.5C 356.666,32.84 356.5,41.1733 356,49.5C 355.333,50.8333 354.667,50.8333 354,49.5C 353,53.5 352,53.5 351,49.5C 350.446,54.2511 350.946,58.9178 352.5,63.5C 353.673,61.0209 353.673,58.5209 352.5,56C 352.613,54.7202 353.28,53.8869 354.5,53.5C 355.044,56.7139 356.044,59.7139 357.5,62.5C 363.173,63.6895 368.84,63.6895 374.5,62.5C 374.5,61.1667 374.5,59.8333 374.5,58.5C 374.328,57.5084 374.662,56.8417 375.5,56.5C 376.5,56.5 377.5,56.5 378.5,56.5C 378.5,59.1667 378.5,61.8333 378.5,64.5C 365.833,64.5 353.167,64.5 340.5,64.5C 341.919,63.5489 343.585,63.2155 345.5,63.5C 346.83,57.7047 347.496,51.538 347.5,45C 347.445,37.8001 347.112,30.6335 346.5,23.5C 347.5,23.5 348.5,23.5 349.5,23.5 Z"/></g>
<g><path style="opacity:1" fill="#57b64c" d="M 402.5,26.5 C 401.191,28.5706 400.525,31.0706 400.5,34C 400.591,37.1985 400.924,40.3651 401.5,43.5C 401.081,44.6721 400.415,45.6721 399.5,46.5C 400.114,50.9669 400.78,55.3002 401.5,59.5C 401.157,61.4832 401.824,62.8166 403.5,63.5C 404.5,63.5 405.5,63.5 406.5,63.5C 401.015,64.6517 395.349,64.8184 389.5,64C 390.811,57.9075 391.478,51.5741 391.5,45C 391.5,38.6574 391.166,32.4907 390.5,26.5C 390.5,26.1667 390.5,25.8333 390.5,25.5C 394.029,23.5772 398.029,22.9106 402.5,23.5C 402.5,24.5 402.5,25.5 402.5,26.5 Z"/></g>
<g><path style="opacity:1" fill="#54b849" d="M 289.5,22.5 C 291.781,22.0773 293.448,22.744 294.5,24.5C 294.167,24.5 293.833,24.5 293.5,24.5C 291.856,24.2865 290.356,24.6198 289,25.5C 288.576,27.9759 287.743,30.3093 286.5,32.5C 286.667,33.1667 286.833,33.8333 287,34.5C 287.766,30.7309 288.599,30.8976 289.5,35C 288.115,36.5971 287.449,38.4305 287.5,40.5C 284.95,40.4392 283.45,39.1059 283,36.5C 282.503,34.1902 282.337,31.8568 282.5,29.5C 284.025,27.7837 285.025,25.7837 285.5,23.5C 286.833,23.1667 288.167,22.8333 289.5,22.5 Z"/></g>
<g><path style="opacity:1" fill="#72ae6a" d="M 117.5,31.5 C 116.946,38.1531 116.612,44.8198 116.5,51.5C 113.844,44.7251 114.177,38.0584 117.5,31.5 Z"/></g>
<g><path style="opacity:1" fill="#57b74b" d="M 237.5,31.5 C 241.26,34.9383 244.593,38.9383 247.5,43.5C 248.257,44.7733 248.923,44.7733 249.5,43.5C 250.491,37.021 250.824,30.3543 250.5,23.5C 251.5,23.5 252.5,23.5 253.5,23.5C 253.5,24.5 253.5,25.5 253.5,26.5C 252.505,38.6554 252.171,50.9887 252.5,63.5C 251.5,63.5 250.5,63.5 249.5,63.5C 249.5,61.8333 249.5,60.1667 249.5,58.5C 245.686,58.3491 244.019,56.3491 244.5,52.5C 241.09,52.6162 239.756,50.9496 240.5,47.5C 238.833,47.5 237.167,47.5 235.5,47.5C 235.657,46.1266 235.49,44.7932 235,43.5C 232.763,41.3529 230.763,39.0196 229,36.5C 227.416,35.1387 225.582,34.472 223.5,34.5C 223.174,43.0168 223.507,51.3501 224.5,59.5C 224.427,61.0269 225.094,62.0269 226.5,62.5C 227.209,63.404 228.209,63.7373 229.5,63.5C 225.167,64.8333 220.833,64.8333 216.5,63.5C 217.833,63.5 219.167,63.5 220.5,63.5C 220.5,62.1667 220.5,60.8333 220.5,59.5C 221.212,49.3149 221.879,38.9816 222.5,28.5C 222.278,26.9446 221.611,25.6113 220.5,24.5C 221,24.1667 221.5,23.8333 222,23.5C 224.464,24.1608 226.964,24.6608 229.5,25C 231.81,27.8303 234.476,29.997 237.5,31.5 Z"/></g>
<g><path style="opacity:1" fill="#62b159" d="M 293.5,24.5 C 289.544,25.8292 288.544,28.4958 290.5,32.5C 294.429,35.9576 298.762,38.6243 303.5,40.5C 299.5,39.5 295.5,38.5 291.5,37.5C 291.5,38.5 291.5,39.5 291.5,40.5C 288.5,40.1667 287.167,41.5 287.5,44.5C 289.973,44.0882 291.306,45.0882 291.5,47.5C 285.717,46.0505 282.383,42.3838 281.5,36.5C 281.198,33.9407 281.532,31.6074 282.5,29.5C 282.337,31.8568 282.503,34.1902 283,36.5C 283.45,39.1059 284.95,40.4392 287.5,40.5C 287.449,38.4305 288.115,36.5971 289.5,35C 288.599,30.8976 287.766,30.7309 287,34.5C 286.833,33.8333 286.667,33.1667 286.5,32.5C 287.743,30.3093 288.576,27.9759 289,25.5C 290.356,24.6198 291.856,24.2865 293.5,24.5 Z"/></g>
<g><path style="opacity:1" fill="#75ab6e" d="M 390.5,26.5 C 391.166,32.4907 391.5,38.6574 391.5,45C 391.478,51.5741 390.811,57.9075 389.5,64C 395.349,64.8184 401.015,64.6517 406.5,63.5C 407.043,63.56 407.376,63.8933 407.5,64.5C 399.833,65.8333 392.167,65.8333 384.5,64.5C 386.567,63.8659 388.4,62.8659 390,61.5C 390.5,49.8381 390.667,38.1714 390.5,26.5 Z"/></g>
<g><path style="opacity:1" fill="#59b54e" d="M 207.5,30.5 C 207.5,30.8333 207.5,31.1667 207.5,31.5C 210.128,39.1049 210.128,46.7715 207.5,54.5C 205.794,60.5347 201.794,64.2013 195.5,65.5C 189.131,65.653 182.797,65.3197 176.5,64.5C 175.833,64.5 175.5,64.1667 175.5,63.5C 172.497,59.6569 169.664,55.6569 167,51.5C 166.347,45.1383 166.513,38.805 167.5,32.5C 169.288,28.8962 171.955,26.2295 175.5,24.5C 182.345,22.5509 189.345,22.0509 196.5,23C 199.488,24.9897 202.155,27.3231 204.5,30C 205.448,30.4828 206.448,30.6495 207.5,30.5 Z"/></g>
<g><path style="opacity:1" fill="#fbfdfa" d="M 186.5,24.5 C 191.35,24.9055 194.683,27.2388 196.5,31.5C 197.593,38.4505 197.76,45.4505 197,52.5C 195.93,56.3109 194.097,59.6443 191.5,62.5C 190.081,63.4511 188.415,63.7845 186.5,63.5C 182.259,60.9331 179.592,57.2665 178.5,52.5C 177.95,44.3318 178.783,36.3318 181,28.5C 182.5,26.5313 184.333,25.198 186.5,24.5 Z"/></g>
<g><path style="opacity:1" fill="#78b071" d="M 207.5,31.5 C 208.497,31.4701 209.164,31.9701 209.5,33C 212.086,39.6776 212.086,46.3443 209.5,53C 209.164,54.0299 208.497,54.5299 207.5,54.5C 210.128,46.7715 210.128,39.1049 207.5,31.5 Z"/></g>
<g><path style="opacity:1" fill="#75b06d" d="M 235.5,47.5 C 233.068,44.3119 230.401,41.3119 227.5,38.5C 227.25,37.0779 226.417,36.0779 225,35.5C 224.5,43.4931 224.334,51.4931 224.5,59.5C 223.507,51.3501 223.174,43.0168 223.5,34.5C 225.582,34.472 227.416,35.1387 229,36.5C 230.763,39.0196 232.763,41.3529 235,43.5C 235.49,44.7932 235.657,46.1266 235.5,47.5 Z"/></g>
<g><path style="opacity:1" fill="#76af6d" d="M 158.5,31.5 C 161.824,38.0637 162.157,44.7303 159.5,51.5C 159.609,44.8039 159.276,38.1373 158.5,31.5 Z"/></g>
<g><path style="opacity:1" fill="#85b47f" d="M 186.5,24.5 C 184.333,25.198 182.5,26.5313 181,28.5C 178.783,36.3318 177.95,44.3318 178.5,52.5C 177.345,45.6791 177.179,38.6791 178,31.5C 179.046,26.9046 181.879,24.5713 186.5,24.5 Z"/></g>
<g><path style="opacity:1" fill="#57b74b" d="M 157.5,31.5 C 157.833,31.5 158.167,31.5 158.5,31.5C 159.276,38.1373 159.609,44.8039 159.5,51.5C 158.335,54.6933 156.669,57.6933 154.5,60.5C 153.012,62.5772 151.012,63.5772 148.5,63.5C 147.127,63.6567 145.793,63.49 144.5,63C 146.155,61.5557 146.822,59.7224 146.5,57.5C 147.232,56.1917 148.066,54.8584 149,53.5C 149.5,46.1742 149.666,38.8409 149.5,31.5C 150.552,31.6495 151.552,31.4828 152.5,31C 149.169,30.2998 146.169,29.1331 143.5,27.5C 143.5,27.1667 143.5,26.8333 143.5,26.5C 142.993,25.1411 141.993,24.1411 140.5,23.5C 141.365,22.4173 142.365,22.2506 143.5,23C 148.758,25.1169 153.425,27.9502 157.5,31.5 Z"/></g>
<g><path style="opacity:1" fill="#83b67d" d="M 196.5,31.5 C 197.822,34.7681 198.489,38.4348 198.5,42.5C 198.513,47.8887 198.013,53.222 197,58.5C 195.549,60.4641 193.716,61.7974 191.5,62.5C 194.097,59.6443 195.93,56.3109 197,52.5C 197.76,45.4505 197.593,38.4505 196.5,31.5 Z"/></g>
<g><path style="opacity:1" fill="#6baf62" d="M 143.5,27.5 C 146.169,29.1331 149.169,30.2998 152.5,31C 151.552,31.4828 150.552,31.6495 149.5,31.5C 149.666,38.8409 149.5,46.1742 149,53.5C 148.066,54.8584 147.232,56.1917 146.5,57.5C 147.532,49.5279 147.698,41.5279 147,33.5C 146.074,31.3083 144.907,29.3083 143.5,27.5 Z"/></g>
<g><path style="opacity:1" fill="#77b16f" d="M 303.5,40.5 C 306.833,41.8333 309.167,44.1667 310.5,47.5C 307.167,46.1667 304.833,43.8333 303.5,40.5 Z"/></g>
<g><path style="opacity:1" fill="#72ae6b" d="M 359.5,26.5 C 358.505,37.6544 358.172,48.9877 358.5,60.5C 357.505,48.3446 357.171,36.0113 357.5,23.5C 354.833,23.5 352.167,23.5 349.5,23.5C 348.5,23.5 347.5,23.5 346.5,23.5C 347.112,30.6335 347.445,37.8001 347.5,45C 347.496,51.538 346.83,57.7047 345.5,63.5C 346.645,51.5758 346.811,39.5758 346,27.5C 345.617,26.944 345.117,26.6107 344.5,26.5C 343.517,25.1497 342.184,24.1497 340.5,23.5C 348.5,22.1667 356.5,22.1667 364.5,23.5C 362.456,24.0652 360.79,25.0652 359.5,26.5 Z"/></g>
<g><path style="opacity:1" fill="#5fb154" d="M 349.5,23.5 C 352.167,23.5 354.833,23.5 357.5,23.5C 357.171,36.0113 357.505,48.3446 358.5,60.5C 361.841,62.4614 365.508,62.9614 369.5,62C 370.942,61.6232 371.942,60.7899 372.5,59.5C 373.167,59.1667 373.833,58.8333 374.5,58.5C 374.5,59.8333 374.5,61.1667 374.5,62.5C 368.84,63.6895 363.173,63.6895 357.5,62.5C 356.044,59.7139 355.044,56.7139 354.5,53.5C 353.28,53.8869 352.613,54.7202 352.5,56C 353.673,58.5209 353.673,61.0209 352.5,63.5C 350.946,58.9178 350.446,54.2511 351,49.5C 352,53.5 353,53.5 354,49.5C 354.667,50.8333 355.333,50.8333 356,49.5C 356.5,41.1733 356.666,32.84 356.5,24.5C 354.833,24.5 353.167,24.5 351.5,24.5C 351.657,25.8734 351.49,27.2068 351,28.5C 350.648,26.7525 350.148,25.0858 349.5,23.5 Z"/></g>
<g><path style="opacity:1" fill="#55b849" d="M 415.5,43.5 C 415.5,43.8333 415.5,44.1667 415.5,44.5C 416.209,48.5946 418.375,51.5946 422,53.5C 423.965,56.3253 425.799,59.3253 427.5,62.5C 428.689,63.4287 430.022,63.762 431.5,63.5C 425.021,64.4907 418.354,64.824 411.5,64.5C 411.842,63.6618 412.508,63.3284 413.5,63.5C 414.376,63.6309 415.043,63.2975 415.5,62.5C 414.184,59.6163 413.184,56.6163 412.5,53.5C 411.252,52.9598 410.085,52.2931 409,51.5C 406.502,48.8986 407.002,47.5653 410.5,47.5C 409.697,41.4739 408.197,41.1406 406,46.5C 405.308,45.9747 404.808,45.3081 404.5,44.5C 406.226,42.7721 407.559,40.7721 408.5,38.5C 409.325,37.6143 410.325,37.281 411.5,37.5C 410.887,40.9694 412.221,42.9694 415.5,43.5 Z"/></g>
<g><path style="opacity:1" fill="#e1f9dd" d="M 227.5,38.5 C 226.178,41.7681 225.511,45.4348 225.5,49.5C 225.562,53.8825 225.895,58.2158 226.5,62.5C 225.094,62.0269 224.427,61.0269 224.5,59.5C 224.334,51.4931 224.5,43.4931 225,35.5C 226.417,36.0779 227.25,37.0779 227.5,38.5 Z"/></g>
<g><path style="opacity:1" fill="#6fb266" d="M 415.5,44.5 C 421.544,50.2685 426.878,56.6019 431.5,63.5C 430.022,63.762 428.689,63.4287 427.5,62.5C 425.799,59.3253 423.965,56.3253 422,53.5C 418.375,51.5946 416.209,48.5946 415.5,44.5 Z"/></g>
<g><path style="opacity:1" fill="#74ae6e" d="M 310.5,47.5 C 310.833,47.5 311.167,47.5 311.5,47.5C 313.402,53.4473 312.069,58.4473 307.5,62.5C 307.608,60.2166 308.441,58.2166 310,56.5C 310.498,53.5184 310.665,50.5184 310.5,47.5 Z"/></g>
<g><path style="opacity:1" fill="#71b167" d="M 287.5,58.5 C 285.156,57.6528 283.656,55.9861 283,53.5C 282.833,55.1667 282.667,56.8333 282.5,58.5C 282.556,60.6397 283.223,62.3064 284.5,63.5C 284.5,64.5 284.5,65.5 284.5,66.5C 283.167,66.5 281.833,66.5 280.5,66.5C 280.5,60.8333 280.5,55.1667 280.5,49.5C 281.833,49.5 283.167,49.5 284.5,49.5C 284.664,52.8174 285.664,55.8174 287.5,58.5 Z"/></g>
<g><path style="opacity:1" fill="#78b16f" d="M 96.5,36.5 C 97.3404,40.9964 98.0071,45.663 98.5,50.5C 98.8896,52.9818 97.8896,54.3152 95.5,54.5C 96.4128,48.5594 96.7461,42.5594 96.5,36.5 Z"/></g>
<g><path style="opacity:1" fill="#75b16c" d="M 291.5,47.5 C 293.921,48.8914 296.588,49.7248 299.5,50C 303.443,52.956 304.443,56.7894 302.5,61.5C 301.15,62.9501 299.484,63.6168 297.5,63.5C 298.765,62.5207 300.099,61.5207 301.5,60.5C 302.641,58.5787 302.808,56.5787 302,54.5C 298.323,52.3037 294.823,49.9703 291.5,47.5 Z"/></g>
<g><path style="opacity:1" fill="#6fac67" d="M 167.5,32.5 C 166.513,38.805 166.347,45.1383 167,51.5C 169.664,55.6569 172.497,59.6569 175.5,63.5C 164.732,55.3426 162.065,45.0093 167.5,32.5 Z"/></g>
<g><path style="opacity:1" fill="#5fad5a" d="M 253.5,26.5 C 253.5,39.5 253.5,52.5 253.5,65.5C 252.167,65.5 250.833,65.5 249.5,65.5C 249.5,64.8333 249.5,64.1667 249.5,63.5C 250.5,63.5 251.5,63.5 252.5,63.5C 252.171,50.9887 252.505,38.6554 253.5,26.5 Z"/></g>
<g><path style="opacity:1" fill="#ebfde7" d="M 359.5,26.5 C 359.333,37.1719 359.5,47.8385 360,58.5C 361.126,59.9436 362.626,60.6102 364.5,60.5C 367.14,59.9049 369.807,59.5715 372.5,59.5C 371.942,60.7899 370.942,61.6232 369.5,62C 365.508,62.9614 361.841,62.4614 358.5,60.5C 358.172,48.9877 358.505,37.6544 359.5,26.5 Z"/></g>
<g><path style="opacity:1" fill="#79af71" d="M 109.5,39.5 C 111.755,48.2905 109.421,55.7905 102.5,62C 101.255,62.7914 99.9217,63.2914 98.5,63.5C 98.5,62.5 98.5,61.5 98.5,60.5C 99.9778,60.762 101.311,60.4287 102.5,59.5C 108.066,54.0627 110.399,47.396 109.5,39.5 Z"/></g>
<g><path style="opacity:1" fill="#72ae6c" d="M 116.5,52.5 C 117.496,52.4142 118.329,52.7476 119,53.5C 120.604,57.0482 122.437,60.3816 124.5,63.5C 120.623,60.7577 117.956,57.091 116.5,52.5 Z"/></g>
<g><path style="opacity:1" fill="#8ab683" d="M 127.5,37.5 C 127.833,37.5 128.167,37.5 128.5,37.5C 128.334,42.5111 128.501,47.5111 129,52.5C 129.656,55.9958 131.156,58.9958 133.5,61.5C 131.938,61.2671 130.605,60.6005 129.5,59.5C 128.71,58.3915 128.21,57.0581 128,55.5C 127.501,49.5092 127.334,43.5092 127.5,37.5 Z"/></g>
<g><path style="opacity:1" fill="#6da968" d="M 402.5,47.5 C 402.267,52.8947 402.6,58.228 403.5,63.5C 401.824,62.8166 401.157,61.4832 401.5,59.5C 401.183,55.2984 401.517,51.2984 402.5,47.5 Z"/></g>
<g><path style="opacity:1" fill="#88ba84" d="M 178.5,52.5 C 179.592,57.2665 182.259,60.9331 186.5,63.5C 180.833,62.1491 178.166,58.4824 178.5,52.5 Z"/></g>
<g><path style="opacity:1" fill="#67b25c" d="M 235.5,47.5 C 237.167,47.5 238.833,47.5 240.5,47.5C 239.756,50.9496 241.09,52.6162 244.5,52.5C 244.019,56.3491 245.686,58.3491 249.5,58.5C 249.5,60.1667 249.5,61.8333 249.5,63.5C 246.907,60.0787 243.741,57.0787 240,54.5C 239.096,51.7666 237.596,49.4333 235.5,47.5 Z"/></g>
<g><path style="opacity:1" fill="#59b64e" d="M 303.5,40.5 C 304.833,43.8333 307.167,46.1667 310.5,47.5C 310.665,50.5184 310.498,53.5184 310,56.5C 308.441,58.2166 307.608,60.2166 307.5,62.5C 306.341,64.2503 304.674,65.2503 302.5,65.5C 297.463,65.5874 292.463,65.254 287.5,64.5C 286.791,63.596 285.791,63.2627 284.5,63.5C 283.223,62.3064 282.556,60.6397 282.5,58.5C 282.667,56.8333 282.833,55.1667 283,53.5C 283.656,55.9861 285.156,57.6528 287.5,58.5C 289.983,61.7414 293.316,63.4081 297.5,63.5C 299.484,63.6168 301.15,62.9501 302.5,61.5C 304.443,56.7894 303.443,52.956 299.5,50C 296.588,49.7248 293.921,48.8914 291.5,47.5C 291.306,45.0882 289.973,44.0882 287.5,44.5C 287.167,41.5 288.5,40.1667 291.5,40.5C 291.5,39.5 291.5,38.5 291.5,37.5C 295.5,38.5 299.5,39.5 303.5,40.5 Z"/></g>
<g><path style="opacity:1" fill="#8cb587" d="M 220.5,59.5 C 220.5,60.8333 220.5,62.1667 220.5,63.5C 219.167,63.5 217.833,63.5 216.5,63.5C 218.167,62.5 219.5,61.1667 220.5,59.5 Z"/></g>
<g><path style="opacity:1" fill="#70b168" d="M 71.5,26.5 C 72.1174,26.6107 72.6174,26.944 73,27.5C 73.4999,39.4954 73.6665,51.4954 73.5,63.5C 75.7469,64.6771 80.0802,64.8438 86.5,64C 84.9391,63.6824 83.7724,62.8491 83,61.5C 82.1739,49.6593 82.3405,37.9927 83.5,26.5C 83.1719,38.0123 83.5052,49.3456 84.5,60.5C 84.62,61.5862 85.2867,62.2528 86.5,62.5C 90.7132,61.609 93.7132,59.2757 95.5,55.5C 95.838,58.1569 95.1713,60.4902 93.5,62.5C 93.9569,63.2975 94.6236,63.6309 95.5,63.5C 90.8806,64.8275 85.8806,65.4942 80.5,65.5C 75.5,65.1667 70.5,64.8333 65.5,64.5C 67.1083,63.6816 68.7749,63.0149 70.5,62.5C 71.499,50.5185 71.8323,38.5185 71.5,26.5 Z"/></g>
<g><path style="opacity:1" fill="#67b25c" d="M 146.5,57.5 C 146.822,59.7224 146.155,61.5557 144.5,63C 145.793,63.49 147.127,63.6567 148.5,63.5C 148.119,64.9311 147.119,65.7645 145.5,66C 140.167,66.6667 134.833,66.6667 129.5,66C 128.244,65.5831 127.577,64.7498 127.5,63.5C 128.873,63.6567 130.207,63.49 131.5,63C 130.027,62.2904 129.36,61.1238 129.5,59.5C 130.605,60.6005 131.938,61.2671 133.5,61.5C 135.16,63.2484 137.16,63.7484 139.5,63C 142.351,61.6291 144.685,59.7957 146.5,57.5 Z"/></g>
<g><path style="opacity:1" fill="#7ab872" d="M 216.5,63.5 C 220.833,64.8333 225.167,64.8333 229.5,63.5C 230.376,63.3691 231.043,63.7025 231.5,64.5C 225.833,65.8333 220.167,65.8333 214.5,64.5C 214.957,63.7025 215.624,63.3691 216.5,63.5 Z"/></g>
<g><path style="opacity:1" fill="#75b36c" d="M 317.5,63.5 C 323.5,64.8333 329.5,64.8333 335.5,63.5C 336.675,63.281 337.675,63.6143 338.5,64.5C 330.5,65.8333 322.5,65.8333 314.5,64.5C 315.325,63.6143 316.325,63.281 317.5,63.5 Z"/></g>
<g><path style="opacity:1" fill="#70b267" d="M 340.5,64.5 C 353.167,64.5 365.833,64.5 378.5,64.5C 378.5,61.8333 378.5,59.1667 378.5,56.5C 377.5,56.5 376.5,56.5 375.5,56.5C 375.347,52.2015 377.347,50.2015 381.5,50.5C 381.16,55.2231 380.493,59.8897 379.5,64.5C 366.339,65.8252 353.339,65.8252 340.5,64.5 Z"/></g>
<g><path style="opacity:1" fill="#6db064" d="M 431.5,63.5 C 432.978,63.238 434.311,63.5713 435.5,64.5C 427.343,65.8204 419.343,65.8204 411.5,64.5C 418.354,64.824 425.021,64.4907 431.5,63.5 Z"/></g>
<g><path style="opacity:1" fill="#7db177" d="M 176.5,64.5 C 182.797,65.3197 189.131,65.653 195.5,65.5C 193.022,66.1641 190.355,66.4975 187.5,66.5C 183.531,66.7058 179.865,66.0392 176.5,64.5 Z"/></g>
<g><path style="opacity:1" fill="#85b780" d="M 287.5,64.5 C 292.463,65.254 297.463,65.5874 302.5,65.5C 300.696,66.162 298.696,66.4954 296.5,66.5C 293.186,66.6575 290.186,65.9908 287.5,64.5 Z"/></g>
<g><path style="opacity:1" fill="#98ba92" d="M 251.5,91.5 C 250.791,90.596 249.791,90.2627 248.5,90.5C 252.096,88.5109 255.763,86.5109 259.5,84.5C 260.833,85.1667 260.833,85.8333 259.5,86.5C 256.805,88.1776 254.139,89.8442 251.5,91.5 Z"/></g>
<g><path style="opacity:1" fill="#6fb667" d="M 248.5,90.5 C 249.791,90.2627 250.791,90.596 251.5,91.5C 243.257,97.5566 235.091,103.89 227,110.5C 226.383,111.449 226.549,112.282 227.5,113C 231.486,113.499 235.486,113.666 239.5,113.5C 239.5,113.833 239.5,114.167 239.5,114.5C 235.154,114.666 230.821,114.499 226.5,114C 226.12,111.674 225.12,109.841 223.5,108.5C 230.693,100.982 239.026,94.9822 248.5,90.5 Z"/></g>
<g><path style="opacity:1" fill="#81b17b" d="M 223.5,108.5 C 222.454,110.882 222.454,113.215 223.5,115.5C 222.307,115.03 221.64,114.03 221.5,112.5C 221.34,110.645 222.007,109.312 223.5,108.5 Z"/></g>
<g><path style="opacity:1" fill="#80b878" d="M 239.5,113.5 C 244.844,113.334 250.177,113.501 255.5,114C 263.732,114.621 271.732,115.788 279.5,117.5C 265.993,116.824 252.66,115.824 239.5,114.5C 239.5,114.167 239.5,113.833 239.5,113.5 Z"/></g>
<g><path style="opacity:1" fill="#54ba49" d="M 223.5,108.5 C 225.12,109.841 226.12,111.674 226.5,114C 230.821,114.499 235.154,114.666 239.5,114.5C 252.66,115.824 265.993,116.824 279.5,117.5C 283.733,120.424 283.066,121.757 277.5,121.5C 261.278,119.298 244.945,117.965 228.5,117.5C 226.597,117.204 224.93,116.537 223.5,115.5C 222.454,113.215 222.454,110.882 223.5,108.5 Z"/></g>
<g><path style="opacity:1" fill="#7bb072" d="M 228.5,117.5 C 244.945,117.965 261.278,119.298 277.5,121.5C 276.082,123.308 274.082,123.975 271.5,123.5C 271.918,122.778 272.584,122.278 273.5,122C 258.269,121.235 243.269,119.735 228.5,117.5 Z"/></g>
<g><path style="opacity:1" fill="#86b47a" d="M 271.5,123.5 C 262.059,125.239 252.393,125.905 242.5,125.5C 251.963,124.053 261.63,123.387 271.5,123.5 Z"/></g>
<g><path style="opacity:1" fill="#88b482" d="M 236.5,125.5 C 229.913,127.461 222.913,128.128 215.5,127.5C 222.289,126.125 229.289,125.458 236.5,125.5 Z"/></g>
<g><path style="opacity:1" fill="#70b368" d="M 279.5,127.5 C 277.123,128.887 274.457,129.721 271.5,130C 263.527,131.163 255.527,131.997 247.5,132.5C 251.9,130.949 256.566,130.116 261.5,130C 261.167,129.667 260.833,129.333 260.5,129C 266.857,128.654 273.19,128.154 279.5,127.5 Z"/></g>
<g><path style="opacity:1" fill="#cde1c5" d="M 299.5,137.5 C 299.643,135.738 299.309,134.071 298.5,132.5C 294.893,131.511 291.226,131.177 287.5,131.5C 291.219,129.702 295.219,129.202 299.5,130C 300.814,132.605 300.814,135.105 299.5,137.5 Z"/></g>
<g><path style="opacity:1" fill="#6fb066" d="M 287.5,131.5 C 291.226,131.177 294.893,131.511 298.5,132.5C 299.309,134.071 299.643,135.738 299.5,137.5C 296.14,140.35 292.14,141.683 287.5,141.5C 290.338,140.194 293.338,139.027 296.5,138C 297.406,136.301 297.739,134.467 297.5,132.5C 292.821,132.334 288.155,132.501 283.5,133C 274.417,135.983 265.083,137.483 255.5,137.5C 255.5,137.167 255.5,136.833 255.5,136.5C 266.255,135.263 276.921,133.596 287.5,131.5 Z"/></g>
<g><path style="opacity:1" fill="#5bb650" d="M 279.5,117.5 C 283.486,117.352 286.153,119.019 287.5,122.5C 286.218,126.152 283.551,127.818 279.5,127.5C 273.19,128.154 266.857,128.654 260.5,129C 260.833,129.333 261.167,129.667 261.5,130C 256.566,130.116 251.9,130.949 247.5,132.5C 239.111,132.803 230.778,132.47 222.5,131.5C 222.167,132.167 221.833,132.833 221.5,133.5C 221.747,134.713 222.414,135.38 223.5,135.5C 233.781,137.476 244.448,138.143 255.5,137.5C 265.083,137.483 274.417,135.983 283.5,133C 288.155,132.501 292.821,132.334 297.5,132.5C 297.739,134.467 297.406,136.301 296.5,138C 293.338,139.027 290.338,140.194 287.5,141.5C 273.691,144.767 259.525,146.434 245,146.5C 235.347,146.689 225.847,145.689 216.5,143.5C 216.389,142.883 216.056,142.383 215.5,142C 210.426,140.994 205.593,139.494 201,137.5C 200.08,134.692 200.913,132.525 203.5,131C 206.146,130.503 208.813,130.336 211.5,130.5C 211.5,129.5 211.5,128.5 211.5,127.5C 212.833,127.5 214.167,127.5 215.5,127.5C 222.913,128.128 229.913,127.461 236.5,125.5C 238.5,125.5 240.5,125.5 242.5,125.5C 252.393,125.905 262.059,125.239 271.5,123.5C 274.082,123.975 276.082,123.308 277.5,121.5C 283.066,121.757 283.733,120.424 279.5,117.5 Z"/></g>
<g><path style="opacity:1" fill="#92bd8d" d="M 227.5,134.5 C 227.611,135.117 227.944,135.617 228.5,136C 237.494,136.5 246.494,136.666 255.5,136.5C 255.5,136.833 255.5,137.167 255.5,137.5C 244.448,138.143 233.781,137.476 223.5,135.5C 224.568,134.566 225.901,134.232 227.5,134.5 Z"/></g>
<g><path style="opacity:1" fill="#71b568" d="M 247.5,132.5 C 241.006,133.444 234.339,134.111 227.5,134.5C 225.901,134.232 224.568,134.566 223.5,135.5C 222.414,135.38 221.747,134.713 221.5,133.5C 221.833,132.833 222.167,132.167 222.5,131.5C 230.778,132.47 239.111,132.803 247.5,132.5 Z"/></g>
<g><path style="opacity:1" fill="#77b571" d="M 211.5,127.5 C 211.5,128.5 211.5,129.5 211.5,130.5C 208.813,130.336 206.146,130.503 203.5,131C 200.913,132.525 200.08,134.692 201,137.5C 205.593,139.494 210.426,140.994 215.5,142C 216.056,142.383 216.389,142.883 216.5,143.5C 209.4,143.414 203.233,141.081 198,136.5C 197.08,133.692 197.913,131.525 200.5,130C 204.07,128.69 207.737,127.857 211.5,127.5 Z"/></g>
<g><path style="opacity:1" fill="#7bb173" d="M 191.5,145.5 C 193.966,144.366 196.633,144.199 199.5,145C 207.677,146.876 215.677,149.042 223.5,151.5C 212.61,150.132 201.943,148.132 191.5,145.5 Z"/></g>
<g><path style="opacity:1" fill="#5fb556" d="M 191.5,147.5 C 189.721,148.67 188.721,150.336 188.5,152.5C 189.5,152.5 190.5,152.5 191.5,152.5C 191.662,154.527 191.495,156.527 191,158.5C 189.676,157.12 188.343,156.786 187,157.5C 186.542,160.558 186.876,163.558 188,166.5C 191.195,167.875 194.528,168.875 198,169.5C 199.169,170.009 200.002,170.842 200.5,172C 204.562,172.023 208.562,171.69 212.5,171C 213.711,171.893 213.711,172.726 212.5,173.5C 210.929,174.309 209.262,174.643 207.5,174.5C 200.916,173.584 194.582,171.75 188.5,169C 187.117,167.729 186.117,166.229 185.5,164.5C 185.34,159.434 185.84,154.434 187,149.5C 188.11,147.963 189.61,147.297 191.5,147.5 Z"/></g>
<g><path style="opacity:1" fill="#79b671" d="M 287.5,175.5 C 294.681,172.541 302.014,169.708 309.5,167C 314.498,161.16 314.831,154.993 310.5,148.5C 305.29,146.083 300.29,146.25 295.5,149C 292.854,149.497 290.187,149.664 287.5,149.5C 287.611,148.883 287.944,148.383 288.5,148C 294.289,145.509 300.289,144.509 306.5,145C 314.933,149.054 317.433,155.554 314,164.5C 313.044,165.579 312.211,166.745 311.5,168C 303.914,171.817 295.914,174.317 287.5,175.5 Z"/></g>
<g><path style="opacity:1" fill="#7bb575" d="M 191.5,145.5 C 191.5,146.167 191.5,146.833 191.5,147.5C 189.61,147.297 188.11,147.963 187,149.5C 185.84,154.434 185.34,159.434 185.5,164.5C 182.436,158.313 183.103,152.479 187.5,147C 188.745,146.209 190.078,145.709 191.5,145.5 Z"/></g>
<g><path style="opacity:1" fill="#57b74c" d="M 191.5,145.5 C 201.943,148.132 212.61,150.132 223.5,151.5C 224.334,152.748 225.667,153.415 227.5,153.5C 231.476,154.164 235.476,154.497 239.5,154.5C 240.72,156.282 241.386,158.282 241.5,160.5C 231.817,160.532 222.151,160.199 212.5,159.5C 210.585,159.784 208.919,159.451 207.5,158.5C 204.786,156.635 201.786,154.969 198.5,153.5C 193.495,155.008 192.495,157.841 195.5,162C 199.494,162.945 203.494,163.778 207.5,164.5C 210.469,166.307 213.802,167.807 217.5,169C 233.143,170.437 248.809,170.771 264.5,170C 269.732,169.235 274.732,168.069 279.5,166.5C 287.697,165.776 295.697,164.443 303.5,162.5C 303.5,161.5 303.5,160.5 303.5,159.5C 303.5,158.5 303.5,157.5 303.5,156.5C 299.603,155.385 295.937,156.052 292.5,158.5C 290.958,159.301 289.292,159.634 287.5,159.5C 281.9,159.716 276.567,160.716 271.5,162.5C 268.15,162.665 264.817,162.498 261.5,162C 260.09,161.632 259.09,160.799 258.5,159.5C 259.641,158.575 259.641,157.741 258.5,157C 259.5,156 260.5,155 261.5,154C 265.025,153.821 268.359,153.321 271.5,152.5C 275.524,152.497 279.524,152.164 283.5,151.5C 285.333,151.415 286.666,150.748 287.5,149.5C 290.187,149.664 292.854,149.497 295.5,149C 300.29,146.25 305.29,146.083 310.5,148.5C 314.831,154.993 314.498,161.16 309.5,167C 302.014,169.708 294.681,172.541 287.5,175.5C 284.482,175.335 281.482,175.502 278.5,176C 277.584,176.278 276.918,176.778 276.5,177.5C 257.495,178.712 238.495,178.712 219.5,177.5C 215.2,177.245 211.2,176.245 207.5,174.5C 209.262,174.643 210.929,174.309 212.5,173.5C 213.711,172.726 213.711,171.893 212.5,171C 208.562,171.69 204.562,172.023 200.5,172C 200.002,170.842 199.169,170.009 198,169.5C 194.528,168.875 191.195,167.875 188,166.5C 186.876,163.558 186.542,160.558 187,157.5C 188.343,156.786 189.676,157.12 191,158.5C 191.495,156.527 191.662,154.527 191.5,152.5C 190.5,152.5 189.5,152.5 188.5,152.5C 188.721,150.336 189.721,148.67 191.5,147.5C 191.5,146.833 191.5,146.167 191.5,145.5 Z"/></g>
<g><path style="opacity:1" fill="#75b46c" d="M 207.5,164.5 C 221.173,167.4 235.007,169.067 249,169.5C 259.222,168.975 269.388,167.975 279.5,166.5C 274.732,168.069 269.732,169.235 264.5,170C 248.809,170.771 233.143,170.437 217.5,169C 213.802,167.807 210.469,166.307 207.5,164.5 Z"/></g>
<g><path style="opacity:1" fill="#7cb975" d="M 303.5,159.5 C 303.5,160.5 303.5,161.5 303.5,162.5C 295.697,164.443 287.697,165.776 279.5,166.5C 287.539,164.595 295.539,162.261 303.5,159.5 Z"/></g>
<g><path style="opacity:1" fill="#7db676" d="M 287.5,159.5 C 282.514,161.701 277.18,162.701 271.5,162.5C 276.567,160.716 281.9,159.716 287.5,159.5 Z"/></g>
<g><path style="opacity:1" fill="#6bb362" d="M 239.5,154.5 C 244.966,156.313 245.632,159.146 241.5,163C 231.528,163.378 221.861,162.211 212.5,159.5C 222.151,160.199 231.817,160.532 241.5,160.5C 241.386,158.282 240.72,156.282 239.5,154.5 Z"/></g>
<g><path style="opacity:1" fill="#91bc8c" d="M 303.5,156.5 C 299.803,157.008 296.136,157.674 292.5,158.5C 295.937,156.052 299.603,155.385 303.5,156.5 Z"/></g>
<g><path style="opacity:1" fill="#74b66d" d="M 271.5,152.5 C 268.359,153.321 265.025,153.821 261.5,154C 260.5,155 259.5,156 258.5,157C 259.641,157.741 259.641,158.575 258.5,159.5C 259.09,160.799 260.09,161.632 261.5,162C 264.817,162.498 268.15,162.665 271.5,162.5C 266.985,163.812 262.318,163.812 257.5,162.5C 256.511,161.532 255.844,160.365 255.5,159C 258.98,152.915 264.313,150.748 271.5,152.5 Z"/></g>
<g><path style="opacity:1" fill="#75b46d" d="M 207.5,158.5 C 203.524,157.705 199.524,157.038 195.5,156.5C 195.33,157.822 195.663,158.989 196.5,160C 200.343,161.361 204.009,162.861 207.5,164.5C 203.494,163.778 199.494,162.945 195.5,162C 192.495,157.841 193.495,155.008 198.5,153.5C 201.786,154.969 204.786,156.635 207.5,158.5 Z"/></g>
<g><path style="opacity:1" fill="#6fb168" d="M 223.5,151.5 C 227.524,151.503 231.524,151.836 235.5,152.5C 237.333,152.585 238.666,153.252 239.5,154.5C 235.476,154.497 231.476,154.164 227.5,153.5C 225.667,153.415 224.334,152.748 223.5,151.5 Z"/></g>
<g><path style="opacity:1" fill="#74b06d" d="M 287.5,149.5 C 286.666,150.748 285.333,151.415 283.5,151.5C 279.524,152.164 275.524,152.497 271.5,152.5C 276.591,150.871 281.924,149.871 287.5,149.5 Z"/></g>
<g><path style="opacity:1" fill="#75b270" d="M 322.5,175.5 C 324.01,176.836 325.677,178.003 327.5,179C 328.823,179.816 329.489,180.983 329.5,182.5C 327.887,180.73 325.887,179.564 323.5,179C 322.663,177.989 322.33,176.822 322.5,175.5 Z"/></g>
<g><path style="opacity:1" fill="#77b36e" d="M 175.5,176.5 C 174.258,178.25 172.758,179.917 171,181.5C 170.83,183.715 170.163,185.715 169,187.5C 167.992,192.822 169.325,197.489 173,201.5C 175.478,203.639 177.978,205.639 180.5,207.5C 170.745,204.01 166.578,197.01 168,186.5C 168.474,181.54 170.974,178.207 175.5,176.5 Z"/></g>
<g><path style="opacity:1" fill="#f7fbf5" d="M 185.5,188.5 C 189.404,189.492 193.404,190.492 197.5,191.5C 198.167,191.5 198.833,191.5 199.5,191.5C 220.421,197.766 241.755,199.766 263.5,197.5C 274.364,197.891 285.031,196.724 295.5,194C 297.32,193.8 298.653,192.966 299.5,191.5C 304.716,191.538 309.716,190.538 314.5,188.5C 315.833,188.5 317.167,188.5 318.5,188.5C 318.838,191.325 317.838,193.492 315.5,195C 309.352,196.775 303.352,198.608 297.5,200.5C 293.786,200.59 290.452,201.59 287.5,203.5C 271.589,205.822 255.589,206.822 239.5,206.5C 234.155,206.313 228.822,205.98 223.5,205.5C 211.56,203.017 199.56,200.183 187.5,197C 185.308,196.074 183.308,194.907 181.5,193.5C 181.5,191.833 181.5,190.167 181.5,188.5C 182.833,188.5 184.167,188.5 185.5,188.5 Z"/></g>
<g><path style="opacity:1" fill="#57b74c" d="M 207.5,181.5 C 209.364,183.218 211.697,184.385 214.5,185C 222.787,186.238 231.12,186.738 239.5,186.5C 255.718,189.475 271.718,188.475 287.5,183.5C 292.232,183.622 296.898,183.122 301.5,182C 305.123,179.521 309.123,178.188 313.5,178C 314.252,177.329 314.586,176.496 314.5,175.5C 317.167,175.5 319.833,175.5 322.5,175.5C 322.33,176.822 322.663,177.989 323.5,179C 325.887,179.564 327.887,180.73 329.5,182.5C 329.934,189.383 329.267,196.05 327.5,202.5C 327.158,203.338 326.492,203.672 325.5,203.5C 323.304,203.59 321.137,203.923 319,204.5C 315.508,203.248 312.008,201.914 308.5,200.5C 308.833,200.167 309.167,199.833 309.5,199.5C 311.336,198.972 313.003,198.306 314.5,197.5C 317.146,196.509 319.479,195.009 321.5,193C 320.767,191.234 320.433,189.401 320.5,187.5C 318.265,187.205 316.265,187.539 314.5,188.5C 309.716,190.538 304.716,191.538 299.5,191.5C 287.432,193.837 275.432,195.837 263.5,197.5C 250.81,197.61 238.143,197.11 225.5,196C 217.108,193.323 208.442,191.823 199.5,191.5C 198.833,191.5 198.167,191.5 197.5,191.5C 197.423,190.25 196.756,189.417 195.5,189C 192.183,188.502 188.85,188.335 185.5,188.5C 185.5,188.167 185.5,187.833 185.5,187.5C 185.209,186.351 184.376,185.684 183,185.5C 179.733,185.491 178.233,187.158 178.5,190.5C 178.406,193.501 179.739,195.501 182.5,196.5C 183.386,197.325 183.719,198.325 183.5,199.5C 190.844,199.402 197.844,200.902 204.5,204C 210.835,204.556 217.168,205.056 223.5,205.5C 228.822,205.98 234.155,206.313 239.5,206.5C 249.18,207.227 259.014,207.894 269,208.5C 275.123,206.157 281.29,206.157 287.5,208.5C 285.577,209.308 283.577,209.808 281.5,210C 286.457,210.746 291.29,210.246 296,208.5C 298.708,208.867 301.208,209.534 303.5,210.5C 303.5,210.833 303.5,211.167 303.5,211.5C 286.328,214.033 268.994,216.033 251.5,217.5C 235.397,217.161 219.397,215.827 203.5,213.5C 195.591,212.254 187.924,210.254 180.5,207.5C 177.978,205.639 175.478,203.639 173,201.5C 169.325,197.489 167.992,192.822 169,187.5C 170.163,185.715 170.83,183.715 171,181.5C 172.758,179.917 174.258,178.25 175.5,176.5C 179.311,175.355 183.311,175.188 187.5,176C 194.13,178.417 200.797,180.251 207.5,181.5 Z"/></g>
<g><path style="opacity:1" fill="#87ba7f" d="M 185.5,187.5 C 185.5,187.833 185.5,188.167 185.5,188.5C 184.167,188.5 182.833,188.5 181.5,188.5C 181.5,190.167 181.5,191.833 181.5,193.5C 179.692,192.082 179.025,190.082 179.5,187.5C 181.5,187.5 183.5,187.5 185.5,187.5 Z"/></g>
<g><path style="opacity:1" fill="#73b569" d="M 185.5,188.5 C 188.85,188.335 192.183,188.502 195.5,189C 196.756,189.417 197.423,190.25 197.5,191.5C 193.404,190.492 189.404,189.492 185.5,188.5 Z"/></g>
<g><path style="opacity:1" fill="#6cb262" d="M 287.5,183.5 C 271.718,188.475 255.718,189.475 239.5,186.5C 255.589,186.822 271.589,185.822 287.5,183.5 Z"/></g>
<g><path style="opacity:1" fill="#6db365" d="M 207.5,181.5 C 218.283,183.178 228.95,184.844 239.5,186.5C 231.12,186.738 222.787,186.238 214.5,185C 211.697,184.385 209.364,183.218 207.5,181.5 Z"/></g>
<g><path style="opacity:1" fill="#6bb262" d="M 314.5,175.5 C 314.586,176.496 314.252,177.329 313.5,178C 309.123,178.188 305.123,179.521 301.5,182C 296.898,183.122 292.232,183.622 287.5,183.5C 296.376,180.732 305.376,178.065 314.5,175.5 Z"/></g>
<g><path style="opacity:1" fill="#7ab672" d="M 219.5,177.5 C 238.495,178.712 257.495,178.712 276.5,177.5C 267.627,179.868 258.461,180.868 249,180.5C 238.893,180.765 229.06,179.765 219.5,177.5 Z"/></g>
<g><path style="opacity:1" fill="#7eb17a" d="M 287.5,175.5 C 284.124,177.082 280.458,177.749 276.5,177.5C 276.918,176.778 277.584,176.278 278.5,176C 281.482,175.502 284.482,175.335 287.5,175.5 Z"/></g>
<g><path style="opacity:1" fill="#75b66c" d="M 314.5,188.5 C 316.265,187.539 318.265,187.205 320.5,187.5C 320.433,189.401 320.767,191.234 321.5,193C 319.479,195.009 317.146,196.509 314.5,197.5C 308.871,198.709 303.205,199.709 297.5,200.5C 303.352,198.608 309.352,196.775 315.5,195C 317.838,193.492 318.838,191.325 318.5,188.5C 317.167,188.5 315.833,188.5 314.5,188.5 Z"/></g>
<g><path style="opacity:1" fill="#72b369" d="M 299.5,191.5 C 298.653,192.966 297.32,193.8 295.5,194C 285.031,196.724 274.364,197.891 263.5,197.5C 275.432,195.837 287.432,193.837 299.5,191.5 Z"/></g>
<g><path style="opacity:1" fill="#77af6f" d="M 199.5,191.5 C 208.442,191.823 217.108,193.323 225.5,196C 238.143,197.11 250.81,197.61 263.5,197.5C 241.755,199.766 220.421,197.766 199.5,191.5 Z"/></g>
<g><path style="opacity:1" fill="#6db365" d="M 329.5,182.5 C 330.117,182.611 330.617,182.944 331,183.5C 331.667,188.167 331.667,192.833 331,197.5C 329.811,199.233 328.644,200.9 327.5,202.5C 329.267,196.05 329.934,189.383 329.5,182.5 Z"/></g>
<g><path style="opacity:1" fill="#7bb474" d="M 297.5,200.5 C 297.209,201.649 296.376,202.316 295,202.5C 292.538,203.159 290.038,203.493 287.5,203.5C 290.452,201.59 293.786,200.59 297.5,200.5 Z"/></g>
<g><path style="opacity:1" fill="#5db453" d="M 314.5,197.5 C 313.003,198.306 311.336,198.972 309.5,199.5C 309.167,199.833 308.833,200.167 308.5,200.5C 312.008,201.914 315.508,203.248 319,204.5C 321.137,203.923 323.304,203.59 325.5,203.5C 323.879,205.117 321.879,206.284 319.5,207C 314.306,208.9 308.973,210.067 303.5,210.5C 301.208,209.534 298.708,208.867 296,208.5C 291.29,210.246 286.457,210.746 281.5,210C 283.577,209.808 285.577,209.308 287.5,208.5C 281.29,206.157 275.123,206.157 269,208.5C 259.014,207.894 249.18,207.227 239.5,206.5C 255.589,206.822 271.589,205.822 287.5,203.5C 290.038,203.493 292.538,203.159 295,202.5C 296.376,202.316 297.209,201.649 297.5,200.5C 303.205,199.709 308.871,198.709 314.5,197.5 Z"/></g>
<g><path style="opacity:1" fill="#68b35f" d="M 185.5,187.5 C 183.5,187.5 181.5,187.5 179.5,187.5C 179.025,190.082 179.692,192.082 181.5,193.5C 183.308,194.907 185.308,196.074 187.5,197C 199.56,200.183 211.56,203.017 223.5,205.5C 217.168,205.056 210.835,204.556 204.5,204C 197.844,200.902 190.844,199.402 183.5,199.5C 183.719,198.325 183.386,197.325 182.5,196.5C 179.739,195.501 178.406,193.501 178.5,190.5C 178.233,187.158 179.733,185.491 183,185.5C 184.376,185.684 185.209,186.351 185.5,187.5 Z"/></g>
<g><path style="opacity:1" fill="#79b372" d="M 334.5,223.5 C 331.111,221.95 328.444,219.45 326.5,216C 323.601,214.853 320.601,214.019 317.5,213.5C 313.006,215.752 308.339,217.418 303.5,218.5C 311.568,211.742 320.234,210.909 329.5,216C 331.808,218.128 333.474,220.628 334.5,223.5 Z"/></g>
<g><path style="opacity:1" fill="#58b64d" d="M 217.5,223.5 C 219.735,223.205 221.735,223.539 223.5,224.5C 227.42,226.038 231.42,227.872 235.5,230C 236.833,232 236.833,234 235.5,236C 231.5,236.667 227.5,236.667 223.5,236C 216.977,234.122 210.31,233.122 203.5,233C 199.869,230.757 195.869,229.923 191.5,230.5C 186.935,226.84 181.602,225.173 175.5,225.5C 175.5,231.167 175.5,236.833 175.5,242.5C 180.612,244.234 185.946,245.234 191.5,245.5C 197.155,246.9 202.489,248.567 207.5,250.5C 215.141,253.154 223.141,254.154 231.5,253.5C 245.01,253.829 258.344,253.496 271.5,252.5C 277.069,252.624 282.402,251.957 287.5,250.5C 293.294,250.02 298.627,248.686 303.5,246.5C 310.15,246.538 316.317,244.871 322,241.5C 322.667,237.5 322.667,233.5 322,229.5C 321.617,228.944 321.117,228.611 320.5,228.5C 318.302,227.933 315.969,227.933 313.5,228.5C 310.568,228.284 307.902,228.951 305.5,230.5C 303.944,229.453 302.277,228.786 300.5,228.5C 300.719,229.675 300.386,230.675 299.5,231.5C 297.096,232.843 294.762,234.177 292.5,235.5C 290.219,235.077 288.552,235.744 287.5,237.5C 279.937,239.138 272.27,239.805 264.5,239.5C 263.618,237.616 262.118,236.283 260,235.5C 259.257,233.559 259.424,231.726 260.5,230C 262.332,229.252 263.999,228.252 265.5,227C 272.199,226.639 278.865,225.972 285.5,225C 286.416,224.722 287.082,224.222 287.5,223.5C 290.066,223.344 292.566,223.678 295,224.5C 296.762,224.056 296.595,223.556 294.5,223C 298.182,222.493 301.182,220.993 303.5,218.5C 308.339,217.418 313.006,215.752 317.5,213.5C 320.601,214.019 323.601,214.853 326.5,216C 328.444,219.45 331.111,221.95 334.5,223.5C 335.338,223.842 335.672,224.508 335.5,225.5C 335.669,230.181 336.002,234.848 336.5,239.5C 336.279,245.269 333.613,249.769 328.5,253C 323.63,254.967 318.63,256.467 313.5,257.5C 296.815,260.843 280.149,263.843 263.5,266.5C 250.16,266.389 236.827,266.055 223.5,265.5C 222.411,263.883 220.744,263.05 218.5,263C 209.3,262.87 200.3,261.704 191.5,259.5C 185.989,258.789 180.655,257.455 175.5,255.5C 175.631,254.624 175.298,253.957 174.5,253.5C 169.213,251.632 165.713,247.965 164,242.5C 162.144,232.54 163.977,223.54 169.5,215.5C 169.5,214.833 169.833,214.5 170.5,214.5C 177.174,212.442 183.174,213.609 188.5,218C 194.077,218.394 199.41,219.728 204.5,222C 205.112,223.303 205.446,224.47 205.5,225.5C 206.631,224.249 207.964,223.249 209.5,222.5C 212.115,223.269 214.781,223.603 217.5,223.5 Z"/></g>
<g><path style="opacity:1" fill="#7ab272" d="M 303.5,211.5 C 286.694,216.769 269.36,219.102 251.5,218.5C 235.113,219.027 219.113,217.36 203.5,213.5C 219.397,215.827 235.397,217.161 251.5,217.5C 268.994,216.033 286.328,214.033 303.5,211.5 Z"/></g>
<g><path style="opacity:1" fill="#6db363" d="M 217.5,223.5 C 214.781,223.603 212.115,223.269 209.5,222.5C 207.964,223.249 206.631,224.249 205.5,225.5C 205.446,224.47 205.112,223.303 204.5,222C 199.41,219.728 194.077,218.394 188.5,218C 183.174,213.609 177.174,212.442 170.5,214.5C 172.375,212.761 174.708,211.761 177.5,211.5C 190.988,215.531 204.321,219.531 217.5,223.5 Z"/></g>
<g><path style="opacity:1" fill="#72b569" d="M 303.5,218.5 C 301.182,220.993 298.182,222.493 294.5,223C 296.595,223.556 296.762,224.056 295,224.5C 292.566,223.678 290.066,223.344 287.5,223.5C 292.446,220.924 297.779,219.258 303.5,218.5 Z"/></g>
<g><path style="opacity:1" fill="#85b77f" d="M 191.5,230.5 C 186.688,228.596 181.688,227.596 176.5,227.5C 176.334,231.514 176.501,235.514 177,239.5C 181.563,242.338 186.396,244.338 191.5,245.5C 185.946,245.234 180.612,244.234 175.5,242.5C 175.5,236.833 175.5,231.167 175.5,225.5C 181.602,225.173 186.935,226.84 191.5,230.5 Z"/></g>
<g><path style="opacity:1" fill="#85bb7e" d="M 287.5,223.5 C 287.082,224.222 286.416,224.722 285.5,225C 278.865,225.972 272.199,226.639 265.5,227C 263.999,228.252 262.332,229.252 260.5,230C 259.424,231.726 259.257,233.559 260,235.5C 262.118,236.283 263.618,237.616 264.5,239.5C 257.868,238.095 256.201,234.595 259.5,229C 261.332,228.252 262.999,227.252 264.5,226C 272.228,225.551 279.894,224.718 287.5,223.5 Z"/></g>
<g><path style="opacity:1" fill="#68b25f" d="M 313.5,228.5 C 308.904,230.698 304.237,232.698 299.5,234.5C 297.139,234.674 294.806,235.007 292.5,235.5C 294.762,234.177 297.096,232.843 299.5,231.5C 300.386,230.675 300.719,229.675 300.5,228.5C 302.277,228.786 303.944,229.453 305.5,230.5C 307.902,228.951 310.568,228.284 313.5,228.5 Z"/></g>
<g><path style="opacity:1" fill="#6fb567" d="M 169.5,215.5 C 163.977,223.54 162.144,232.54 164,242.5C 165.713,247.965 169.213,251.632 174.5,253.5C 175.298,253.957 175.631,254.624 175.5,255.5C 172.888,254.629 170.221,253.963 167.5,253.5C 165.624,248.746 163.458,244.079 161,239.5C 159.653,231.928 160.986,224.928 165,218.5C 166.129,216.859 167.629,215.859 169.5,215.5 Z"/></g>
<g><path style="opacity:1" fill="#74b46b" d="M 223.5,224.5 C 229.775,224.423 234.942,226.757 239,231.5C 238.912,234.642 237.412,237.142 234.5,239C 219.736,237.901 205.402,235.067 191.5,230.5C 195.869,229.923 199.869,230.757 203.5,233C 210.31,233.122 216.977,234.122 223.5,236C 227.5,236.667 231.5,236.667 235.5,236C 236.833,234 236.833,232 235.5,230C 231.42,227.872 227.42,226.038 223.5,224.5 Z"/></g>
<g><path style="opacity:1" fill="#c2dfbe" d="M 299.5,234.5 C 295.8,236.245 291.8,237.245 287.5,237.5C 288.552,235.744 290.219,235.077 292.5,235.5C 294.806,235.007 297.139,234.674 299.5,234.5 Z"/></g>
<g><path style="opacity:1" fill="#84b77c" d="M 335.5,225.5 C 337.558,230.072 337.891,234.738 336.5,239.5C 336.002,234.848 335.669,230.181 335.5,225.5 Z"/></g>
<g><path style="opacity:1" fill="#85ba7e" d="M 320.5,228.5 C 321.117,228.611 321.617,228.944 322,229.5C 322.667,233.5 322.667,237.5 322,241.5C 316.317,244.871 310.15,246.538 303.5,246.5C 309.099,244.633 314.766,242.633 320.5,240.5C 321.698,236.488 321.698,232.488 320.5,228.5 Z"/></g>
<g><path style="opacity:1" fill="#8aba83" d="M 303.5,246.5 C 298.627,248.686 293.294,250.02 287.5,250.5C 292.562,248.549 297.896,247.215 303.5,246.5 Z"/></g>
<g><path style="opacity:1" fill="#87bf81" d="M 287.5,250.5 C 282.402,251.957 277.069,252.624 271.5,252.5C 276.616,251.194 281.949,250.527 287.5,250.5 Z"/></g>
<g><path style="opacity:1" fill="#6fb266" d="M 207.5,250.5 C 215.717,250.86 223.717,251.86 231.5,253.5C 223.141,254.154 215.141,253.154 207.5,250.5 Z"/></g>
<g><path style="opacity:1" fill="#74b36c" d="M 313.5,257.5 C 297.497,263.259 280.83,266.259 263.5,266.5C 280.149,263.843 296.815,260.843 313.5,257.5 Z"/></g>
<g><path style="opacity:1" fill="#6eb565" d="M 191.5,259.5 C 200.3,261.704 209.3,262.87 218.5,263C 220.744,263.05 222.411,263.883 223.5,265.5C 212.334,265.399 201.667,263.399 191.5,259.5 Z"/></g>
<g><path style="opacity:1" fill="#83ba7c" d="M 324.5,263.5 C 317.412,263.862 310.412,264.862 303.5,266.5C 307.46,265.191 311.46,263.691 315.5,262C 318.167,261.333 320.833,261.333 323.5,262C 324.056,262.383 324.389,262.883 324.5,263.5 Z"/></g>
<g><path style="opacity:1" fill="#69b35f" d="M 207.5,269.5 C 203.116,269.826 198.783,269.492 194.5,268.5C 192.337,266.28 189.837,265.947 187,267.5C 186.057,265.046 184.224,264.046 181.5,264.5C 176.448,264.504 172.115,266.171 168.5,269.5C 169.075,267.589 170.075,265.922 171.5,264.5C 173.414,262.714 175.748,261.714 178.5,261.5C 188.278,264.21 197.944,266.877 207.5,269.5 Z"/></g>
<g><path style="opacity:1" fill="#58b74c" d="M 324.5,263.5 C 326.664,263.721 328.33,264.721 329.5,266.5C 332.051,272.2 333.051,278.2 332.5,284.5C 331.167,284.5 329.833,284.5 328.5,284.5C 328.66,286.199 328.494,287.866 328,289.5C 324.913,291.094 322.08,292.76 319.5,294.5C 309.645,297.199 299.645,299.532 289.5,301.5C 288.287,301.747 287.62,302.414 287.5,303.5C 286.5,303.5 285.5,303.5 284.5,303.5C 261.484,305 238.484,304.833 215.5,303C 214.328,302.581 213.328,301.915 212.5,301C 208.5,300.667 204.5,300.333 200.5,300C 200.167,299.667 199.833,299.333 199.5,299C 202.167,298.667 204.833,298.333 207.5,298C 200.781,296.77 194.115,296.604 187.5,297.5C 183.445,294.469 178.778,292.636 173.5,292C 171.937,290.053 169.937,288.886 167.5,288.5C 167.5,288.167 167.5,287.833 167.5,287.5C 167.137,284.011 166.804,280.511 166.5,277C 166.769,274.319 167.436,271.819 168.5,269.5C 172.115,266.171 176.448,264.504 181.5,264.5C 184.224,264.046 186.057,265.046 187,267.5C 189.837,265.947 192.337,266.28 194.5,268.5C 198.783,269.492 203.116,269.826 207.5,269.5C 218.117,271.132 228.784,272.466 239.5,273.5C 251.66,274.66 263.993,274.827 276.5,274C 277.942,273.623 278.942,272.79 279.5,271.5C 280.833,271.5 282.167,271.5 283.5,271.5C 290.195,271.044 296.862,270.378 303.5,269.5C 303.5,268.5 303.5,267.5 303.5,266.5C 310.412,264.862 317.412,263.862 324.5,263.5 Z"/></g>
<g><path style="opacity:1" fill="#f7fbf6" d="M 178.5,275.5 C 188.2,277.34 197.866,279.507 207.5,282C 216.754,283.87 226.087,285.036 235.5,285.5C 244.833,285.5 254.167,285.5 263.5,285.5C 271.813,285.918 279.813,284.918 287.5,282.5C 296.407,281.44 305.073,279.44 313.5,276.5C 318.837,274 321.17,275.667 320.5,281.5C 317.075,282.091 314.075,283.425 311.5,285.5C 308.572,285.565 305.905,286.232 303.5,287.5C 297.897,288.215 292.564,289.548 287.5,291.5C 266.249,294.497 244.915,295.164 223.5,293.5C 214.214,291.749 204.881,289.749 195.5,287.5C 189.611,286.495 184.111,284.495 179,281.5C 178.505,279.527 178.338,277.527 178.5,275.5 Z"/></g>
<g><path style="opacity:1" fill="#72b26a" d="M 279.5,271.5 C 278.942,272.79 277.942,273.623 276.5,274C 263.993,274.827 251.66,274.66 239.5,273.5C 252.925,273.998 266.259,273.331 279.5,271.5 Z"/></g>
<g><path style="opacity:1" fill="#7cb777" d="M 303.5,266.5 C 303.5,267.5 303.5,268.5 303.5,269.5C 296.862,270.378 290.195,271.044 283.5,271.5C 289.986,269.545 296.653,267.878 303.5,266.5 Z"/></g>
<g><path style="opacity:1" fill="#7ab074" d="M 223.5,265.5 C 236.827,266.055 250.16,266.389 263.5,266.5C 258.344,267.166 253.011,267.499 247.5,267.5C 239.278,267.668 231.278,267.001 223.5,265.5 Z"/></g>
<g><path style="opacity:1" fill="#81b97b" d="M 171.5,264.5 C 170.075,265.922 169.075,267.589 168.5,269.5C 167.436,271.819 166.769,274.319 166.5,277C 166.804,280.511 167.137,284.011 167.5,287.5C 163.411,280.487 163.577,273.487 168,266.5C 168.816,265.177 169.983,264.511 171.5,264.5 Z"/></g>
<g><path style="opacity:1" fill="#9dc995" d="M 320.5,281.5 C 321.17,275.667 318.837,274 313.5,276.5C 320.116,272.706 322.449,274.373 320.5,281.5 Z"/></g>
<g><path style="opacity:1" fill="#74b56b" d="M 178.5,275.5 C 179.793,274.842 181.293,274.508 183,274.5C 187.5,275 192,275.5 196.5,276C 209.511,279.418 222.511,282.585 235.5,285.5C 226.087,285.036 216.754,283.87 207.5,282C 197.866,279.507 188.2,277.34 178.5,275.5 Z"/></g>
<g><path style="opacity:1" fill="#88ba82" d="M 287.5,282.5 C 279.813,284.918 271.813,285.918 263.5,285.5C 271.297,283.984 279.297,282.984 287.5,282.5 Z"/></g>
<g><path style="opacity:1" fill="#6ab261" d="M 329.5,266.5 C 334.485,271.988 335.652,278.322 333,285.5C 330.254,291.071 325.754,294.071 319.5,294.5C 322.08,292.76 324.913,291.094 328,289.5C 328.494,287.866 328.66,286.199 328.5,284.5C 329.833,284.5 331.167,284.5 332.5,284.5C 333.051,278.2 332.051,272.2 329.5,266.5 Z"/></g>
<g><path style="opacity:1" fill="#82af7a" d="M 311.5,285.5 C 309.22,287.223 306.553,287.889 303.5,287.5C 305.905,286.232 308.572,285.565 311.5,285.5 Z"/></g>
<g><path style="opacity:1" fill="#79b470" d="M 303.5,287.5 C 303.119,288.931 302.119,289.764 300.5,290C 296.168,290.583 291.835,291.083 287.5,291.5C 292.564,289.548 297.897,288.215 303.5,287.5 Z"/></g>
<g><path style="opacity:1" fill="#76b56d" d="M 167.5,288.5 C 169.937,288.886 171.937,290.053 173.5,292C 178.778,292.636 183.445,294.469 187.5,297.5C 182.402,296.809 177.402,295.642 172.5,294C 170.627,292.296 168.96,290.463 167.5,288.5 Z"/></g>
<g><path style="opacity:1" fill="#68b25f" d="M 195.5,287.5 C 204.881,289.749 214.214,291.749 223.5,293.5C 213.819,293.72 204.485,292.72 195.5,290.5C 195.5,289.5 195.5,288.5 195.5,287.5 Z"/></g>
<g><path style="opacity:1" fill="#6caf64" d="M 287.5,291.5 C 285.611,292.322 283.611,293.155 281.5,294C 265.243,296.341 248.909,297.008 232.5,296C 229.008,296.07 226.008,295.237 223.5,293.5C 244.915,295.164 266.249,294.497 287.5,291.5 Z"/></g>
<g><path style="opacity:1" fill="#6ab360" d="M 284.5,303.5 C 280.433,305.054 276.1,305.72 271.5,305.5C 260.85,306.238 250.183,306.572 239.5,306.5C 221.562,306.309 204.228,303.309 187.5,297.5C 194.115,296.604 200.781,296.77 207.5,298C 204.833,298.333 202.167,298.667 199.5,299C 199.833,299.333 200.167,299.667 200.5,300C 204.5,300.333 208.5,300.667 212.5,301C 213.328,301.915 214.328,302.581 215.5,303C 238.484,304.833 261.484,305 284.5,303.5 Z"/></g>
<g><path style="opacity:1" fill="#73b16a" d="M 319.5,294.5 C 316.246,296.745 312.58,298.245 308.5,299C 301.561,300.821 294.561,302.321 287.5,303.5C 287.62,302.414 288.287,301.747 289.5,301.5C 299.645,299.532 309.645,297.199 319.5,294.5 Z"/></g>
<g><path style="opacity:1" fill="#84bd7d" d="M 316.5,308.5 C 313.65,307.816 311.15,306.482 309,304.5C 307.234,305.233 305.401,305.567 303.5,305.5C 304.334,304.252 305.667,303.585 307.5,303.5C 308.833,303.667 310.167,303.833 311.5,304C 313.398,305.417 315.064,306.917 316.5,308.5 Z"/></g>
<g><path style="opacity:1" fill="#bcdbb6" d="M 271.5,305.5 C 265.058,306.944 258.392,307.61 251.5,307.5C 247.319,307.499 243.319,307.166 239.5,306.5C 250.183,306.572 260.85,306.238 271.5,305.5 Z"/></g>
<g><path style="opacity:1" fill="#7ab472" d="M 299.5,306.5 C 296.032,309.114 292.032,310.114 287.5,309.5C 291.239,307.898 295.239,306.898 299.5,306.5 Z"/></g>
<g><path style="opacity:1" fill="#72b36b" d="M 201.5,306.5 C 208.946,308.186 216.279,309.853 223.5,311.5C 217.271,311.444 211.105,310.777 205,309.5C 203.092,309.285 201.926,308.285 201.5,306.5 Z"/></g>
<g><path style="opacity:1" fill="#5bb650" d="M 201.5,306.5 C 201.926,308.285 203.092,309.285 205,309.5C 211.105,310.777 217.271,311.444 223.5,311.5C 228.177,311.835 232.844,312.335 237.5,313C 238.416,313.278 239.082,313.778 239.5,314.5C 240.174,316.024 241.174,317.358 242.5,318.5C 242.032,320.134 241.032,321.3 239.5,322C 234.154,322.432 228.82,322.266 223.5,321.5C 219.433,319.946 215.1,319.28 210.5,319.5C 203.837,318.169 197.17,316.836 190.5,315.5C 190.517,317.565 190.85,319.565 191.5,321.5C 192.5,322.167 193.5,322.833 194.5,323.5C 192.876,323.36 191.71,324.027 191,325.5C 185.683,322.855 183.016,318.522 183,312.5C 180.728,317.781 181.228,322.781 184.5,327.5C 183.833,327.5 183.167,327.5 182.5,327.5C 180.519,322.75 180.019,317.75 181,312.5C 181.904,309.767 183.404,307.433 185.5,305.5C 186.777,304.102 188.443,303.436 190.5,303.5C 194.236,304.302 197.902,305.302 201.5,306.5 Z"/></g>
<g><path style="opacity:1" fill="#5ab650" d="M 316.5,308.5 C 317.79,309.058 318.623,310.058 319,311.5C 321.71,320.243 319.21,326.743 311.5,331C 303.708,334.07 295.708,336.237 287.5,337.5C 282.195,338.194 276.862,338.528 271.5,338.5C 276.697,337.509 282.03,336.509 287.5,335.5C 283.616,334.159 279.616,333.325 275.5,333C 276.308,332.692 276.975,332.192 277.5,331.5C 275.604,330.534 273.604,330.201 271.5,330.5C 271.5,330.167 271.5,329.833 271.5,329.5C 273.948,328.527 276.615,328.194 279.5,328.5C 288.264,328.625 296.264,326.625 303.5,322.5C 304.848,321.399 306.348,320.399 308,319.5C 308.49,318.207 308.657,316.873 308.5,315.5C 306.833,315.5 305.167,315.5 303.5,315.5C 299.134,314.749 295.801,316.082 293.5,319.5C 291.265,319.205 289.265,319.539 287.5,320.5C 280.13,320.728 272.797,321.395 265.5,322.5C 262.145,322.276 258.812,321.943 255.5,321.5C 255.5,320.167 255.5,318.833 255.5,317.5C 260.651,315.004 265.985,313.337 271.5,312.5C 276.706,311.508 282.039,310.508 287.5,309.5C 292.032,310.114 296.032,309.114 299.5,306.5C 300.568,305.566 301.901,305.232 303.5,305.5C 305.401,305.567 307.234,305.233 309,304.5C 311.15,306.482 313.65,307.816 316.5,308.5 Z"/></g>
<g><path style="opacity:1" fill="#7ebb76" d="M 271.5,312.5 C 265.985,313.337 260.651,315.004 255.5,317.5C 256.626,315.547 258.292,314.047 260.5,313C 264.152,312.501 267.818,312.335 271.5,312.5 Z"/></g>
<g><path style="opacity:1" fill="#76b471" d="M 303.5,315.5 C 300.317,317.01 296.984,318.343 293.5,319.5C 295.801,316.082 299.134,314.749 303.5,315.5 Z"/></g>
<g><path style="opacity:1" fill="#91c188" d="M 185.5,305.5 C 183.404,307.433 181.904,309.767 181,312.5C 180.019,317.75 180.519,322.75 182.5,327.5C 180.39,326.547 179.223,324.881 179,322.5C 178.063,317.597 178.73,312.93 181,308.5C 182.129,306.859 183.629,305.859 185.5,305.5 Z"/></g>
<g><path style="opacity:1" fill="#7cb277" d="M 210.5,319.5 C 215.1,319.28 219.433,319.946 223.5,321.5C 218.9,321.72 214.567,321.054 210.5,319.5 Z"/></g>
<g><path style="opacity:1" fill="#7cb175" d="M 239.5,314.5 C 243.146,315.462 244.313,317.795 243,321.5C 238.391,323.51 233.558,324.01 228.5,323C 226.618,322.802 224.952,322.302 223.5,321.5C 228.82,322.266 234.154,322.432 239.5,322C 241.032,321.3 242.032,320.134 242.5,318.5C 241.174,317.358 240.174,316.024 239.5,314.5 Z"/></g>
<g><path style="opacity:1" fill="#76b46e" d="M 287.5,320.5 C 277.779,323.069 267.779,323.902 257.5,323C 256.584,322.722 255.918,322.222 255.5,321.5C 258.812,321.943 262.145,322.276 265.5,322.5C 272.797,321.395 280.13,320.728 287.5,320.5 Z"/></g>
<g><path style="opacity:1" fill="#8fc389" d="M 191.5,321.5 C 197.091,322.261 202.424,323.595 207.5,325.5C 203.038,325.577 198.705,324.91 194.5,323.5C 193.5,322.833 192.5,322.167 191.5,321.5 Z"/></g>
<g><path style="opacity:1" fill="#79b471" d="M 303.5,322.5 C 296.264,326.625 288.264,328.625 279.5,328.5C 287.233,325.9 295.233,323.9 303.5,322.5 Z"/></g>
<g><path style="opacity:1" fill="#68b55d" d="M 182.5,327.5 C 183.167,327.5 183.833,327.5 184.5,327.5C 188.135,329.226 191.968,330.559 196,331.5C 199.861,330.933 203.695,330.267 207.5,329.5C 207.5,330.833 207.5,332.167 207.5,333.5C 206.325,333.281 205.325,333.614 204.5,334.5C 207.295,334.938 209.628,335.938 211.5,337.5C 202.715,335.85 194.049,333.684 185.5,331C 184.29,329.961 183.29,328.794 182.5,327.5 Z"/></g>
<g><path style="opacity:1" fill="#7fb278" d="M 271.5,329.5 C 271.5,329.833 271.5,330.167 271.5,330.5C 270.791,331.404 269.791,331.737 268.5,331.5C 257.321,331.828 246.321,331.495 235.5,330.5C 247.518,330.642 259.518,330.309 271.5,329.5 Z"/></g>
<g><path style="opacity:1" fill="#60b554" d="M 207.5,326.5 C 216.795,328.049 226.129,329.382 235.5,330.5C 246.321,331.495 257.321,331.828 268.5,331.5C 259.009,332.33 249.342,332.83 239.5,333C 244.846,333.768 250.179,334.601 255.5,335.5C 252.833,335.833 250.167,336.167 247.5,336.5C 239.5,335.5 231.5,334.5 223.5,333.5C 225.167,332.833 226.833,332.167 228.5,331.5C 222.833,330.833 217.167,330.167 211.5,329.5C 210.376,328.141 209.042,327.141 207.5,326.5 Z"/></g>
<g><path style="opacity:1" fill="#55b84a" d="M 194.5,323.5 C 198.705,324.91 203.038,325.577 207.5,325.5C 207.5,325.833 207.5,326.167 207.5,326.5C 209.042,327.141 210.376,328.141 211.5,329.5C 217.167,330.167 222.833,330.833 228.5,331.5C 226.833,332.167 225.167,332.833 223.5,333.5C 231.5,334.5 239.5,335.5 247.5,336.5C 250.167,336.167 252.833,335.833 255.5,335.5C 250.179,334.601 244.846,333.768 239.5,333C 249.342,332.83 259.009,332.33 268.5,331.5C 269.791,331.737 270.791,331.404 271.5,330.5C 273.604,330.201 275.604,330.534 277.5,331.5C 276.975,332.192 276.308,332.692 275.5,333C 279.616,333.325 283.616,334.159 287.5,335.5C 282.03,336.509 276.697,337.509 271.5,338.5C 268.375,339.479 265.042,339.813 261.5,339.5C 245.144,339.323 228.81,338.657 212.5,337.5C 212.167,337.5 211.833,337.5 211.5,337.5C 209.628,335.938 207.295,334.938 204.5,334.5C 205.325,333.614 206.325,333.281 207.5,333.5C 207.5,332.167 207.5,330.833 207.5,329.5C 203.695,330.267 199.861,330.933 196,331.5C 191.968,330.559 188.135,329.226 184.5,327.5C 181.228,322.781 180.728,317.781 183,312.5C 183.016,318.522 185.683,322.855 191,325.5C 191.71,324.027 192.876,323.36 194.5,323.5 Z"/></g>
<g><path style="opacity:1" fill="#65b65b" d="M 212.5,337.5 C 228.81,338.657 245.144,339.323 261.5,339.5C 248.993,340.637 236.326,340.637 223.5,339.5C 219.511,339.884 215.845,339.217 212.5,337.5 Z"/></g>
<g><path style="opacity:1" fill="#7ab274" d="M 287.5,337.5 C 279.768,339.494 271.768,340.66 263.5,341C 252.833,341.667 242.167,341.667 231.5,341C 228.635,340.817 225.969,340.317 223.5,339.5C 236.326,340.637 248.993,340.637 261.5,339.5C 265.042,339.813 268.375,339.479 271.5,338.5C 276.862,338.528 282.195,338.194 287.5,337.5 Z"/></g>
<g><path style="opacity:1" fill="#78b271" d="M 223.5,345.5 C 215.576,343.903 207.576,343.403 199.5,344C 198.978,344.561 198.645,345.228 198.5,346C 199.856,347.567 200.523,349.4 200.5,351.5C 197.098,348.658 196.765,345.492 199.5,342C 207.806,341.775 215.806,342.942 223.5,345.5 Z"/></g>
<g><path style="opacity:1" fill="#57b84c" d="M 223.5,345.5 C 231.441,347.035 239.608,347.702 248,347.5C 260.199,347.426 272.366,346.76 284.5,345.5C 288.15,346.387 291.817,347.053 295.5,347.5C 295.511,354.019 292.178,357.186 285.5,357C 282.231,359.644 278.565,360.144 274.5,358.5C 274.709,357.914 275.043,357.414 275.5,357C 277.833,356.667 280.167,356.333 282.5,356C 285.258,353.469 284.925,351.969 281.5,351.5C 277.976,351.901 274.642,352.567 271.5,353.5C 255.514,354.324 239.514,354.657 223.5,354.5C 222.737,353.732 221.737,353.232 220.5,353C 214.839,352.367 209.172,351.867 203.5,351.5C 202.5,351.5 201.5,351.5 200.5,351.5C 200.523,349.4 199.856,347.567 198.5,346C 198.645,345.228 198.978,344.561 199.5,344C 207.576,343.403 215.576,343.903 223.5,345.5 Z"/></g>
<g><path style="opacity:1" fill="#82b27c" d="M 203.5,351.5 C 209.172,351.867 214.839,352.367 220.5,353C 221.737,353.232 222.737,353.732 223.5,354.5C 216.552,354.468 209.886,353.468 203.5,351.5 Z"/></g>
<g><path style="opacity:1" fill="#71b368" d="M 271.5,353.5 C 262.385,355.035 253.052,355.702 243.5,355.5C 236.658,355.5 229.991,355.166 223.5,354.5C 239.514,354.657 255.514,354.324 271.5,353.5 Z"/></g>
<g><path style="opacity:1" fill="#54b949" d="M 274.5,363.5 C 273.209,363.263 272.209,363.596 271.5,364.5C 256.269,366.927 240.935,368.26 225.5,368.5C 225.849,374.146 224.349,374.813 221,370.5C 220.51,369.207 220.343,367.873 220.5,366.5C 221.791,366.737 222.791,366.404 223.5,365.5C 226.328,366.461 228.995,366.295 231.5,365C 243.215,364.509 254.882,363.509 266.5,362C 269.139,359.195 272.139,359.028 275.5,361.5C 275.137,362.183 274.804,362.85 274.5,363.5 Z"/></g>
<g><path style="opacity:1" fill="#6eb364" d="M 274.5,363.5 C 274.804,362.85 275.137,362.183 275.5,361.5C 272.139,359.028 269.139,359.195 266.5,362C 254.882,363.509 243.215,364.509 231.5,365C 228.995,366.295 226.328,366.461 223.5,365.5C 223.918,364.778 224.584,364.278 225.5,364C 244.112,363.759 262.112,360.426 279.5,354C 276.854,353.503 274.187,353.336 271.5,353.5C 274.642,352.567 277.976,351.901 281.5,351.5C 284.925,351.969 285.258,353.469 282.5,356C 280.167,356.333 277.833,356.667 275.5,357C 275.043,357.414 274.709,357.914 274.5,358.5C 278.565,360.144 282.231,359.644 285.5,357C 292.178,357.186 295.511,354.019 295.5,347.5C 291.817,347.053 288.15,346.387 284.5,345.5C 272.366,346.76 260.199,347.426 248,347.5C 239.608,347.702 231.441,347.035 223.5,345.5C 230.664,345.803 237.831,346.136 245,346.5C 261.814,345.105 278.648,344.605 295.5,345C 297.215,345.777 298.215,347.11 298.5,349C 293.259,358.131 285.259,362.965 274.5,363.5 Z"/></g>
<g><path style="opacity:1" fill="#70b466" d="M 271.5,364.5 C 257.532,368.159 243.199,370.326 228.5,371C 232.161,372.593 235.828,373.759 239.5,374.5C 236.15,374.335 232.817,374.502 229.5,375C 230.167,375.667 230.833,376.333 231.5,377C 234.675,376.947 237.342,377.78 239.5,379.5C 232.969,379.597 226.969,377.93 221.5,374.5C 217.032,370.043 217.699,367.043 223.5,365.5C 222.791,366.404 221.791,366.737 220.5,366.5C 220.343,367.873 220.51,369.207 221,370.5C 224.349,374.813 225.849,374.146 225.5,368.5C 240.935,368.26 256.269,366.927 271.5,364.5 Z"/></g>
<g><path style="opacity:1" fill="#78b170" d="M 239.5,374.5 C 247.481,375.157 255.481,375.657 263.5,376C 265.315,376.757 266.981,377.59 268.5,378.5C 258.494,377.578 248.827,376.245 239.5,374.5 Z"/></g>
<g><path style="opacity:1" fill="#65b55a" d="M 239.5,374.5 C 248.827,376.245 258.494,377.578 268.5,378.5C 270.182,383.346 269.182,387.679 265.5,391.5C 263.952,391.179 263.285,390.179 263.5,388.5C 265.051,386.087 265.717,383.421 265.5,380.5C 256.651,380.826 247.984,380.493 239.5,379.5C 237.342,377.78 234.675,376.947 231.5,377C 230.833,376.333 230.167,375.667 229.5,375C 232.817,374.502 236.15,374.335 239.5,374.5 Z"/></g>
<g><path style="opacity:1" fill="#7bb974" d="M 263.5,388.5 C 263.285,390.179 263.952,391.179 265.5,391.5C 263.316,395.881 260.65,399.881 257.5,403.5C 256.833,403.5 256.167,403.5 255.5,403.5C 257.381,398.07 260.048,393.07 263.5,388.5 Z"/></g>
<g><path style="opacity:1" fill="#96ac94" d="M 255.5,403.5 C 256.167,403.5 256.833,403.5 257.5,403.5C 256.158,406.166 254.325,408.499 252,410.5C 252.085,407.664 253.251,405.331 255.5,403.5 Z"/></g>
<g><path style="opacity:1" fill="#74af6e" d="M 258.5,419.5 C 254.486,419.334 250.486,419.501 246.5,420C 244.473,421.879 242.14,423.046 239.5,423.5C 240.457,420.832 242.457,419.332 245.5,419C 250.02,418.186 254.354,418.353 258.5,419.5 Z"/></g>
<g><path style="opacity:1" fill="#73b26b" d="M 271.5,425.5 C 275.589,428.083 279.256,431.25 282.5,435C 318.498,435.5 354.498,435.667 390.5,435.5C 390.714,437.144 390.38,438.644 389.5,440C 382.508,440.5 375.508,440.666 368.5,440.5C 368.5,442.5 368.5,444.5 368.5,446.5C 370.696,446.41 372.863,446.077 375,445.5C 377.111,445.701 378.945,446.367 380.5,447.5C 376.167,447.5 371.833,447.5 367.5,447.5C 367.5,444.833 367.5,442.167 367.5,439.5C 374.162,438.951 380.828,438.284 387.5,437.5C 351.171,436.667 314.838,436.167 278.5,436C 276.327,432.339 273.994,428.839 271.5,425.5 Z"/></g>
<g><path style="opacity:1" fill="#55b84a" d="M 191.5,473.5 C 189.833,473.5 188.167,473.5 186.5,473.5C 186.666,466.492 186.5,459.492 186,452.5C 185.5,452 185,451.5 184.5,451C 186.045,449.178 186.712,447.011 186.5,444.5C 186.444,442.36 185.777,440.694 184.5,439.5C 184.167,439.5 183.833,439.5 183.5,439.5C 174.991,438.833 166.324,438.167 157.5,437.5C 170.833,436.167 184.167,436.167 197.5,437.5C 195.892,438.318 194.225,438.985 192.5,439.5C 192.167,440.167 191.833,440.833 191.5,441.5C 192.814,452.216 192.814,462.882 191.5,473.5 Z"/></g>
<g><path style="opacity:1" fill="#7ab474" d="M 239.5,425.5 C 239.5,429.167 239.5,432.833 239.5,436.5C 237.5,436.5 235.5,436.5 233.5,436.5C 233.5,437.5 233.5,438.5 233.5,439.5C 233.167,439.5 232.833,439.5 232.5,439.5C 232.5,438.167 232.5,436.833 232.5,435.5C 234.5,435.5 236.5,435.5 238.5,435.5C 238.489,433.453 238.156,431.453 237.5,429.5C 237.668,427.829 238.335,426.496 239.5,425.5 Z"/></g>
<g><path style="opacity:1" fill="#57b64c" d="M 258.5,419.5 C 256.708,420.309 254.708,420.809 252.5,421C 253.5,421.333 254.5,421.667 255.5,422C 252.549,422.096 249.882,422.929 247.5,424.5C 246.789,441.074 246.456,457.741 246.5,474.5C 244.167,474.5 241.833,474.5 239.5,474.5C 239.5,462.833 239.5,451.167 239.5,439.5C 237.5,439.5 235.5,439.5 233.5,439.5C 233.5,438.5 233.5,437.5 233.5,436.5C 235.5,436.5 237.5,436.5 239.5,436.5C 239.5,432.833 239.5,429.167 239.5,425.5C 239.5,424.833 239.5,424.167 239.5,423.5C 242.14,423.046 244.473,421.879 246.5,420C 250.486,419.501 254.486,419.334 258.5,419.5 Z"/></g>
<g><path style="opacity:1" fill="#67af5f" d="M 258.5,419.5 C 263.251,420.71 267.584,422.71 271.5,425.5C 268.5,424.833 265.5,424.167 262.5,423.5C 263.397,426.99 265.73,429.156 269.5,430C 270.126,430.75 270.626,431.584 271,432.5C 272.183,431.269 273.349,431.269 274.5,432.5C 272.879,433.695 271.213,434.695 269.5,435.5C 263.321,436.167 256.988,436.833 250.5,437.5C 256.988,438.167 263.321,438.833 269.5,439.5C 262.313,439.175 255.313,439.509 248.5,440.5C 248.5,452.167 248.5,463.833 248.5,475.5C 245.5,475.5 242.5,475.5 239.5,475.5C 239.5,475.167 239.5,474.833 239.5,474.5C 241.833,474.5 244.167,474.5 246.5,474.5C 246.456,457.741 246.789,441.074 247.5,424.5C 249.882,422.929 252.549,422.096 255.5,422C 254.5,421.667 253.5,421.333 252.5,421C 254.708,420.809 256.708,420.309 258.5,419.5 Z"/></g>
<g><path style="opacity:1" fill="#f7fcf6" d="M 269.5,435.5 C 262.167,435.5 254.833,435.5 247.5,435.5C 247.335,432.482 247.502,429.482 248,426.5C 249.062,425.101 250.395,424.101 252,423.5C 256.732,425.244 261.232,427.41 265.5,430C 267.464,431.451 268.797,433.284 269.5,435.5 Z"/></g>
<g><path style="opacity:1" fill="#92b78e" d="M 156.5,439.5 C 165.5,439.5 174.5,439.5 183.5,439.5C 183.833,439.5 184.167,439.5 184.5,439.5C 184.81,442.713 184.477,445.713 183.5,448.5C 183.5,445.833 183.5,443.167 183.5,440.5C 174.318,440.827 165.318,440.493 156.5,439.5 Z"/></g>
<g><path style="opacity:1" fill="#76a772" d="M 248.5,440.5 C 255.313,439.509 262.313,439.175 269.5,439.5C 271.436,443.715 272.103,448.381 271.5,453.5C 270.833,453.5 270.5,453.167 270.5,452.5C 270.817,448.298 270.483,444.298 269.5,440.5C 262.5,440.5 255.5,440.5 248.5,440.5 Z"/></g>
<g><path style="opacity:1" fill="#55b849" d="M 143.5,440.5 C 143.5,443.167 143.5,445.833 143.5,448.5C 138.156,448.666 132.823,448.499 127.5,448C 130.167,447.667 132.833,447.333 135.5,447C 138.07,444.282 138.07,441.615 135.5,439C 127.479,438.832 119.479,438.332 111.5,437.5C 124.5,436.167 137.5,436.167 150.5,437.5C 147.705,437.938 145.372,438.938 143.5,440.5 Z"/></g>
<g><path style="opacity:1" fill="#6eaf65" d="M 144.5,440.5 C 144.167,440.5 143.833,440.5 143.5,440.5C 145.372,438.938 147.705,437.938 150.5,437.5C 137.5,436.167 124.5,436.167 111.5,437.5C 119.479,438.332 127.479,438.832 135.5,439C 138.07,441.615 138.07,444.282 135.5,447C 132.833,447.333 130.167,447.667 127.5,448C 132.823,448.499 138.156,448.666 143.5,448.5C 138.167,449.167 132.833,449.833 127.5,450.5C 126.364,452.046 125.698,453.879 125.5,456C 125.965,458.603 126.632,461.103 127.5,463.5C 126.504,463.586 125.671,463.252 125,462.5C 122.688,457.354 123.188,452.521 126.5,448C 125.207,447.51 123.873,447.343 122.5,447.5C 121.5,447.5 120.5,447.5 119.5,447.5C 119.611,446.883 119.944,446.383 120.5,446C 125.155,445.501 129.821,445.334 134.5,445.5C 134.5,443.833 134.5,442.167 134.5,440.5C 126.167,440.5 117.833,440.5 109.5,440.5C 109.5,438.833 109.5,437.167 109.5,435.5C 123.833,435.5 138.167,435.5 152.5,435.5C 152.714,437.144 152.38,438.644 151.5,440C 149.19,440.497 146.857,440.663 144.5,440.5 Z"/></g>
<g><path style="opacity:1" fill="#99a697" d="M 232.5,439.5 C 232.833,439.5 233.167,439.5 233.5,439.5C 235.5,439.5 237.5,439.5 239.5,439.5C 239.5,451.167 239.5,462.833 239.5,474.5C 239.5,474.833 239.5,475.167 239.5,475.5C 238.505,464.012 238.172,452.345 238.5,440.5C 236.265,440.795 234.265,440.461 232.5,439.5 Z"/></g>
<g><path style="opacity:1" fill="#c0e6ba" d="M 269.5,440.5 C 270.483,444.298 270.817,448.298 270.5,452.5C 268.821,452.715 267.821,452.048 267.5,450.5C 269.402,447.663 270.069,444.329 269.5,440.5 Z"/></g>
<g><path style="opacity:1" fill="#8aa686" d="M 143.5,440.5 C 143.833,440.5 144.167,440.5 144.5,440.5C 144.5,443.833 144.5,447.167 144.5,450.5C 138.833,450.5 133.167,450.5 127.5,450.5C 132.833,449.833 138.167,449.167 143.5,448.5C 143.5,445.833 143.5,443.167 143.5,440.5 Z"/></g>
<g><path style="opacity:1" fill="#67ae5f" d="M 358.5,445.5 C 356.393,446.468 354.059,446.802 351.5,446.5C 351.5,447.5 351.5,448.5 351.5,449.5C 353.787,449.276 355.953,448.609 358,447.5C 358.945,447.905 359.612,448.572 360,449.5C 360.692,454.362 360.525,459.195 359.5,464C 361.134,467.253 361.801,470.753 361.5,474.5C 363.5,474.5 365.5,474.5 367.5,474.5C 367.177,468.31 367.51,462.31 368.5,456.5C 368.5,462.833 368.5,469.167 368.5,475.5C 365.5,475.5 362.5,475.5 359.5,475.5C 359.5,472.833 359.5,470.167 359.5,467.5C 353.444,468.484 348.111,467.151 343.5,463.5C 341.732,460.838 341.065,457.838 341.5,454.5C 339.516,454.383 337.85,455.05 336.5,456.5C 335.866,458.772 334.532,460.439 332.5,461.5C 332.5,459.5 332.5,457.5 332.5,455.5C 334.606,455.321 336.272,454.321 337.5,452.5C 333.808,451.748 330.142,450.914 326.5,450C 325.748,449.329 325.414,448.496 325.5,447.5C 332.409,449.446 339.409,449.446 346.5,447.5C 346.918,446.778 347.584,446.278 348.5,446C 351.817,445.502 355.15,445.335 358.5,445.5 Z"/></g>
<g><path style="opacity:1" fill="#5db451" d="M 267.5,450.5 C 267.821,452.048 268.821,452.715 270.5,452.5C 270.5,453.167 270.833,453.5 271.5,453.5C 269.646,453.61 267.646,453.943 265.5,454.5C 267.188,456.854 269.188,458.854 271.5,460.5C 272.167,460.5 272.833,460.5 273.5,460.5C 273.943,464.713 275.943,468.046 279.5,470.5C 280.429,471.689 280.762,473.022 280.5,474.5C 277.161,476.03 274.161,475.363 271.5,472.5C 268.718,467.258 265.218,462.592 261,458.5C 259.241,454.991 258.074,451.325 257.5,447.5C 260.572,447.183 263.572,447.516 266.5,448.5C 266.863,449.183 267.196,449.85 267.5,450.5 Z"/></g>
<g><path style="opacity:1" fill="#6faf69" d="M 380.5,447.5 C 385.475,449.882 387.309,453.882 386,459.5C 385.392,461.066 384.558,462.4 383.5,463.5C 384.376,460.201 384.543,456.868 384,453.5C 381.772,452.108 380.606,450.108 380.5,447.5 Z"/></g>
<g><path style="opacity:1" fill="#62b358" d="M 184.5,439.5 C 185.777,440.694 186.444,442.36 186.5,444.5C 186.712,447.011 186.045,449.178 184.5,451C 185,451.5 185.5,452 186,452.5C 186.5,459.492 186.666,466.492 186.5,473.5C 188.167,473.5 189.833,473.5 191.5,473.5C 189.735,474.461 187.735,474.795 185.5,474.5C 186.128,467.087 185.461,460.087 183.5,453.5C 180.833,453.5 178.167,453.5 175.5,453.5C 175.5,456.5 175.5,459.5 175.5,462.5C 172.753,462.813 170.086,462.48 167.5,461.5C 165.851,459.35 164.018,457.35 162,455.5C 159.855,453.105 160.022,450.938 162.5,449C 169.492,448.5 176.492,448.334 183.5,448.5C 184.477,445.713 184.81,442.713 184.5,439.5 Z"/></g>
<g><path style="opacity:1" fill="#75b26d" d="M 297.5,440.5 C 297.5,452.167 297.5,463.833 297.5,475.5C 294.167,475.5 290.833,475.5 287.5,475.5C 287.5,469.167 287.5,462.833 287.5,456.5C 282.797,456.437 278.13,456.771 273.5,457.5C 273.5,458.5 273.5,459.5 273.5,460.5C 272.833,460.5 272.167,460.5 271.5,460.5C 271.297,458.61 271.963,457.11 273.5,456C 275.577,455.808 277.577,455.308 279.5,454.5C 278.552,449.565 278.219,444.565 278.5,439.5C 282.5,439.5 286.5,439.5 290.5,439.5C 289.667,451.146 289.334,462.813 289.5,474.5C 291.833,474.5 294.167,474.5 296.5,474.5C 296.172,462.988 296.505,451.654 297.5,440.5 Z"/></g>
<g><path style="opacity:1" fill="#97c591" d="M 117.5,449.5 C 116.949,452.807 116.616,456.14 116.5,459.5C 115.135,456.041 115.469,452.708 117.5,449.5 Z"/></g>
<g><path style="opacity:1" fill="#54b745" d="M 122.5,447.5 C 123.873,447.343 125.207,447.51 126.5,448C 123.188,452.521 122.688,457.354 125,462.5C 125.671,463.252 126.504,463.586 127.5,463.5C 127.38,464.586 126.713,465.253 125.5,465.5C 123.675,464.349 121.675,463.682 119.5,463.5C 119.297,457.92 120.297,452.586 122.5,447.5 Z"/></g>
<g><path style="opacity:1" fill="#79b372" d="M 183.5,453.5 C 185.461,460.087 186.128,467.087 185.5,474.5C 187.735,474.795 189.735,474.461 191.5,473.5C 192.814,462.882 192.814,452.216 191.5,441.5C 191.833,440.833 192.167,440.167 192.5,439.5C 194.225,438.985 195.892,438.318 197.5,437.5C 184.167,436.167 170.833,436.167 157.5,437.5C 166.324,438.167 174.991,438.833 183.5,439.5C 174.5,439.5 165.5,439.5 156.5,439.5C 156.5,438.167 156.5,436.833 156.5,435.5C 170.833,435.5 185.167,435.5 199.5,435.5C 199.5,437.167 199.5,438.833 199.5,440.5C 197.5,440.5 195.5,440.5 193.5,440.5C 193.5,452.167 193.5,463.833 193.5,475.5C 190.167,475.5 186.833,475.5 183.5,475.5C 183.5,468.167 183.5,460.833 183.5,453.5 Z"/></g>
<g><path style="opacity:1" fill="#65b35c" d="M 381.5,465.5 C 380.058,466.82 379.392,468.486 379.5,470.5C 376.833,470.5 374.167,470.5 371.5,470.5C 370.859,469.518 370.193,468.518 369.5,467.5C 372.737,464.187 375.071,460.354 376.5,456C 376.185,452.483 374.518,451.316 371.5,452.5C 371.97,451.307 372.97,450.64 374.5,450.5C 377.327,450.645 378.66,452.145 378.5,455C 377.978,457.21 377.312,459.377 376.5,461.5C 377.307,463.98 378.974,465.313 381.5,465.5 Z"/></g>
<g><path style="opacity:1" fill="#5eb354" d="M 119.5,447.5 C 120.5,447.5 121.5,447.5 122.5,447.5C 120.297,452.586 119.297,457.92 119.5,463.5C 121.675,463.682 123.675,464.349 125.5,465.5C 126.713,465.253 127.38,464.586 127.5,463.5C 129.167,463.5 130.833,463.5 132.5,463.5C 132.261,461.533 132.594,459.699 133.5,458C 136.833,457.333 140.167,457.333 143.5,458C 144.944,459.126 145.61,460.626 145.5,462.5C 144.345,465.011 143.678,467.678 143.5,470.5C 143.5,470.833 143.5,471.167 143.5,471.5C 141.565,470.85 139.565,470.517 137.5,470.5C 137.5,471.5 137.5,472.5 137.5,473.5C 137.167,473.5 136.833,473.5 136.5,473.5C 135.069,472.22 134.402,470.553 134.5,468.5C 128.155,469.355 122.655,467.688 118,463.5C 117.79,461.942 117.29,460.609 116.5,459.5C 116.616,456.14 116.949,452.807 117.5,449.5C 117.5,448.167 118.167,447.5 119.5,447.5 Z"/></g>
<g><path style="opacity:1" fill="#56b74a" d="M 271.5,425.5 C 273.994,428.839 276.327,432.339 278.5,436C 314.838,436.167 351.171,436.667 387.5,437.5C 380.828,438.284 374.162,438.951 367.5,439.5C 367.5,442.167 367.5,444.833 367.5,447.5C 371.833,447.5 376.167,447.5 380.5,447.5C 380.606,450.108 381.772,452.108 384,453.5C 384.543,456.868 384.376,460.201 383.5,463.5C 383.5,464.833 382.833,465.5 381.5,465.5C 378.974,465.313 377.307,463.98 376.5,461.5C 377.312,459.377 377.978,457.21 378.5,455C 378.66,452.145 377.327,450.645 374.5,450.5C 372.97,450.64 371.97,451.307 371.5,452.5C 370.488,453.872 369.488,455.205 368.5,456.5C 367.51,462.31 367.177,468.31 367.5,474.5C 365.5,474.5 363.5,474.5 361.5,474.5C 361.801,470.753 361.134,467.253 359.5,464C 360.525,459.195 360.692,454.362 360,449.5C 359.612,448.572 358.945,447.905 358,447.5C 355.953,448.609 353.787,449.276 351.5,449.5C 351.5,448.5 351.5,447.5 351.5,446.5C 354.059,446.802 356.393,446.468 358.5,445.5C 358.833,445.5 359.167,445.5 359.5,445.5C 360.811,443.44 360.811,441.274 359.5,439C 339.167,438.333 318.833,438.333 298.5,439C 297.944,439.383 297.611,439.883 297.5,440.5C 296.505,451.654 296.172,462.988 296.5,474.5C 294.167,474.5 291.833,474.5 289.5,474.5C 289.334,462.813 289.667,451.146 290.5,439.5C 286.5,439.5 282.5,439.5 278.5,439.5C 278.219,444.565 278.552,449.565 279.5,454.5C 277.577,455.308 275.577,455.808 273.5,456C 271.963,457.11 271.297,458.61 271.5,460.5C 269.188,458.854 267.188,456.854 265.5,454.5C 267.646,453.943 269.646,453.61 271.5,453.5C 272.103,448.381 271.436,443.715 269.5,439.5C 263.321,438.833 256.988,438.167 250.5,437.5C 256.988,436.833 263.321,436.167 269.5,435.5C 271.213,434.695 272.879,433.695 274.5,432.5C 273.349,431.269 272.183,431.269 271,432.5C 270.626,431.584 270.126,430.75 269.5,430C 265.73,429.156 263.397,426.99 262.5,423.5C 265.5,424.167 268.5,424.833 271.5,425.5 Z"/></g>
<g><path style="opacity:1" fill="#71b067" d="M 324.5,453.5 C 325.5,453.5 326.5,453.5 327.5,453.5C 326.833,455.819 326.666,458.153 327,460.5C 328.699,461.406 330.533,461.739 332.5,461.5C 330.679,463.857 328.345,464.191 325.5,462.5C 325.059,459.458 324.725,456.458 324.5,453.5 Z"/></g>
<g><path style="opacity:1" fill="#59b64d" d="M 346.5,447.5 C 347.978,447.238 349.311,447.571 350.5,448.5C 350.291,449.086 349.957,449.586 349.5,450C 350.756,450.417 351.423,451.25 351.5,452.5C 351.5,452.833 351.5,453.167 351.5,453.5C 351.5,455.833 351.5,458.167 351.5,460.5C 351.5,462.167 351.5,463.833 351.5,465.5C 344.18,463.631 341.68,458.964 344,451.5C 345.706,450.692 346.539,449.359 346.5,447.5 Z"/></g>
<g><path style="opacity:1" fill="#c1e1bd" d="M 358.5,458.5 C 358.5,456.167 358.5,453.833 358.5,451.5C 355.892,451.4 353.558,452.067 351.5,453.5C 351.5,453.167 351.5,452.833 351.5,452.5C 353.82,450.774 356.487,450.107 359.5,450.5C 359.806,453.385 359.473,456.052 358.5,458.5 Z"/></g>
<g><path style="opacity:1" fill="#f6fbf6" d="M 358.5,458.5 C 357.019,462.622 354.686,463.288 351.5,460.5C 351.5,458.167 351.5,455.833 351.5,453.5C 353.558,452.067 355.892,451.4 358.5,451.5C 358.5,453.833 358.5,456.167 358.5,458.5 Z"/></g>
<g><path style="opacity:1" fill="#55b84a" d="M 321.5,447.5 C 322.833,447.5 324.167,447.5 325.5,447.5C 325.414,448.496 325.748,449.329 326.5,450C 330.142,450.914 333.808,451.748 337.5,452.5C 336.272,454.321 334.606,455.321 332.5,455.5C 332.5,457.5 332.5,459.5 332.5,461.5C 330.533,461.739 328.699,461.406 327,460.5C 326.666,458.153 326.833,455.819 327.5,453.5C 326.5,453.5 325.5,453.5 324.5,453.5C 324.179,451.952 323.179,451.285 321.5,451.5C 321.5,450.167 321.5,448.833 321.5,447.5 Z"/></g>
<g><path style="opacity:1" fill="#73b369" d="M 321.5,447.5 C 321.5,448.833 321.5,450.167 321.5,451.5C 323.179,451.285 324.179,451.952 324.5,453.5C 319.669,452.667 317.336,454.667 317.5,459.5C 317.87,461.667 318.537,463.667 319.5,465.5C 318.504,465.586 317.671,465.252 317,464.5C 314.208,459.398 315.041,455.065 319.5,451.5C 311.573,449.749 307.906,453.082 308.5,461.5C 307.049,451.938 311.382,447.271 321.5,447.5 Z"/></g>
<g><path style="opacity:1" fill="#fcfdfb" d="M 279.5,440.5 C 282.167,440.5 284.833,440.5 287.5,440.5C 287.5,444.167 287.5,447.833 287.5,451.5C 284.833,451.5 282.167,451.5 279.5,451.5C 279.5,447.833 279.5,444.167 279.5,440.5 Z"/></g>
<g><path style="opacity:1" fill="#6fac66" d="M 359.5,445.5 C 359.5,443.833 359.5,442.167 359.5,440.5C 338.833,440.5 318.167,440.5 297.5,440.5C 297.611,439.883 297.944,439.383 298.5,439C 318.833,438.333 339.167,438.333 359.5,439C 360.811,441.274 360.811,443.44 359.5,445.5 Z"/></g>
<g><path style="opacity:1" fill="#56b74a" d="M 319.5,465.5 C 321.9,467.671 324.233,470.005 326.5,472.5C 324.235,473.647 321.902,473.814 319.5,473C 315.592,470.254 312.259,467.088 309.5,463.5C 308.662,463.158 308.328,462.492 308.5,461.5C 307.906,453.082 311.573,449.749 319.5,451.5C 315.041,455.065 314.208,459.398 317,464.5C 317.671,465.252 318.504,465.586 319.5,465.5 Z"/></g>
<g><path style="opacity:1" fill="#70ae6a" d="M 273.5,460.5 C 276.469,463.642 279.302,466.975 282,470.5C 282.773,472.352 282.273,473.686 280.5,474.5C 280.762,473.022 280.429,471.689 279.5,470.5C 275.943,468.046 273.943,464.713 273.5,460.5 Z"/></g>
<g><path style="opacity:1" fill="#71b367" d="M 309.5,463.5 C 312.259,467.088 315.592,470.254 319.5,473C 321.902,473.814 324.235,473.647 326.5,472.5C 324.233,470.005 321.9,467.671 319.5,465.5C 321.928,466.415 324.261,467.582 326.5,469C 329.73,470.724 330.064,472.724 327.5,475C 318.573,475.929 312.573,472.096 309.5,463.5 Z"/></g>
<g><path style="opacity:1" fill="#f0fcee" d="M 371.5,470.5 C 371.018,473.046 370.018,475.379 368.5,477.5C 365.242,476.583 361.909,476.249 358.5,476.5C 358.5,473.833 358.5,471.167 358.5,468.5C 354.818,468.665 351.152,468.499 347.5,468C 345.249,467.252 343.916,465.752 343.5,463.5C 348.111,467.151 353.444,468.484 359.5,467.5C 359.5,470.167 359.5,472.833 359.5,475.5C 362.5,475.5 365.5,475.5 368.5,475.5C 368.5,469.167 368.5,462.833 368.5,456.5C 369.488,455.205 370.488,453.872 371.5,452.5C 374.518,451.316 376.185,452.483 376.5,456C 375.071,460.354 372.737,464.187 369.5,467.5C 370.193,468.518 370.859,469.518 371.5,470.5 Z"/></g>
<g><path style="opacity:1" fill="#77ad70" d="M 136.5,473.5 C 136.833,473.5 137.167,473.5 137.5,473.5C 136.947,478.482 136.613,483.482 136.5,488.5C 135.883,488.389 135.383,488.056 135,487.5C 134.833,486.167 134.667,484.833 134.5,483.5C 135.174,480.158 135.84,476.825 136.5,473.5 Z"/></g>
<g><path style="opacity:1" fill="#55b849" d="M 143.5,471.5 C 143.786,473.277 144.453,474.944 145.5,476.5C 145.078,478.663 143.744,479.997 141.5,480.5C 143.171,482.51 143.838,484.843 143.5,487.5C 146.167,487.5 148.833,487.5 151.5,487.5C 151.5,488.5 151.5,489.5 151.5,490.5C 146.308,490.909 141.308,490.242 136.5,488.5C 136.613,483.482 136.947,478.482 137.5,473.5C 137.5,472.5 137.5,471.5 137.5,470.5C 139.565,470.517 141.565,470.85 143.5,471.5 Z"/></g>
<g><path style="opacity:1" fill="#61b357" d="M 159.5,479.5 C 162.769,482.289 165.103,485.789 166.5,490C 165.218,491.911 163.385,492.744 161,492.5C 159.833,492.167 158.667,491.833 157.5,491.5C 155.213,486.892 152.213,482.892 148.5,479.5C 148.97,478.307 149.97,477.64 151.5,477.5C 154.011,478.655 156.678,479.322 159.5,479.5 Z"/></g>
<g><path style="opacity:1" fill="#6ead65" d="M 143.5,470.5 C 144.837,471.315 145.837,472.482 146.5,474C 151.711,474.007 156.044,475.84 159.5,479.5C 156.678,479.322 154.011,478.655 151.5,477.5C 149.97,477.64 148.97,478.307 148.5,479.5C 145.056,480.045 143.889,482.045 145,485.5C 147.405,486.274 149.905,486.774 152.5,487C 153.38,488.356 153.714,489.856 153.5,491.5C 149.524,492.331 145.524,492.497 141.5,492C 139.119,491.777 137.453,490.61 136.5,488.5C 141.308,490.242 146.308,490.909 151.5,490.5C 151.5,489.5 151.5,488.5 151.5,487.5C 148.833,487.5 146.167,487.5 143.5,487.5C 143.838,484.843 143.171,482.51 141.5,480.5C 143.744,479.997 145.078,478.663 145.5,476.5C 144.453,474.944 143.786,473.277 143.5,471.5C 143.5,471.167 143.5,470.833 143.5,470.5 Z"/></g>
</svg>
